<?xml version="1.0" ?><svg id="Layer_2" style="enable-background:new 0 0 64 64;" version="1.1" viewBox="0 0 64 64" xml:space="preserve" xmlns="http://www.w3.org/2000/svg" xmlns:xlink="http://www.w3.org/1999/xlink"><g id="XMLID_55_"><g><path d="M44,35.5c0,1.38-1.12,2.5-2.5,2.5c-0.18,0-0.35-0.02-0.51-0.05c-0.97-0.2-1.74-0.97-1.94-1.94    C39.02,35.85,39,35.68,39,35.5V27c0-3.31,2.69-6,6-6h3h1l-1,7l2,2l2-2l-1-7h1h3c3.31,0,6,2.69,6,6v8.5c0,1.38-1.12,2.5-2.5,2.5    c-0.69,0-1.32-0.28-1.77-0.73S56,36.19,56,35.5V58c0,1.66-1.34,3-3,3c-0.83,0-1.58-0.34-2.12-0.88C50.34,59.58,50,58.83,50,58    c0,1.66-1.34,3-3,3s-3-1.34-3-3v-4h2v-8v-5h-2V35.5z" style="fill:#EC7E5B;"/><path d="M55,4c1.1,0,2,0.9,2,2s-0.9,2-2,2h-1.02H48c0,1.1-0.9,2-2,2c-0.3,0-0.58-0.07-0.84-0.19    c-0.01,0-0.02,0-0.03-0.01c-0.01-0.01-0.01-0.01-0.02-0.02c-0.14-0.07-0.26-0.15-0.38-0.24c-0.1-0.08-0.18-0.17-0.27-0.27    c-0.05-0.07-0.1-0.14-0.15-0.21L44.3,9.05C44.11,8.74,44,8.38,44,8c0-1.1,0.9-2,2-2c0-1.1,0.9-2,2-2H55z" style="fill:#F5C85F;"/><path d="M50,17c-0.37,0-0.72-0.04-1.07-0.12c-0.13-0.03-0.27-0.06-0.4-0.1c-0.02-0.01-0.04-0.01-0.06-0.02    c-0.16-0.05-0.32-0.11-0.47-0.18c-1.76-0.77-3-2.53-3-4.58v-1c0-0.41,0.06-0.8,0.16-1.17c0-0.01,0-0.01,0-0.02    C45.42,9.93,45.7,10,46,10c1.1,0,2-0.9,2-2h5.98C54.61,8.84,55,9.87,55,11v1c0,2.05-1.24,3.81-3,4.58    c-0.15,0.07-0.31,0.13-0.47,0.18c-0.16,0.05-0.33,0.1-0.49,0.13C50.7,16.96,50.36,17,50,17z" style="fill:#EFD0AF;"/><path d="M52,16.59V21h-1h-2h-1v-4.41c0.15,0.06,0.31,0.12,0.47,0.17c0.02,0.01,0.04,0.02,0.06,0.02    c0.13,0.04,0.27,0.08,0.4,0.1C49.28,16.96,49.63,17,50,17c0.36,0,0.7-0.04,1.04-0.11c0.16-0.03,0.33-0.08,0.49-0.13    C51.69,16.71,51.85,16.65,52,16.59z" style="fill:#EFD0AF;"/><polygon points="51,21 52,28 50,30 48,28 49,21   " style="fill:#5AC2CC;"/><path d="M28,3c6.24,0,11.92,2.29,16.3,6.05l0.01,0.01c0.04,0.07,0.09,0.14,0.15,0.21    c0.09,0.1,0.17,0.19,0.27,0.27c0.12,0.1,0.26,0.19,0.4,0.26c0.01,0.01,0.02,0.02,0.03,0.03C45.06,10.2,45,10.59,45,11v1    c0,2.05,1.24,3.81,3,4.58v0.01V21h-3c-3.31,0-6,2.69-6,6v8.5c0,0.18,0.02,0.35,0.05,0.51C39.03,36,39.02,36,39,36h-3    c-1.1,0-2,0.9-2,2v3h-6v5v7C14.19,53,3,41.81,3,28S14.19,3,28,3z" style="fill:#AAE1EC;"/><polygon points="37,46 45.34,46 46,46 46,54 44,54 28,54 28,53 28,46   " style="fill:#434D56;"/><polygon points="37,46 28,46 28,41 34,41 41,41 44,41 46,41 46,46 45.34,46   " style="fill:#434D56;"/></g><g><path d="M44.73,9.54    c0.12,0.1,0.26,0.19,0.4,0.26c0.01,0.01,0.02,0.01,0.03,0.01" style="fill:none;stroke:#000000;stroke-width:2;stroke-linejoin:round;stroke-miterlimit:10;"/><path d="M44.31,9.06    c0.04,0.07,0.09,0.14,0.15,0.21" style="fill:none;stroke:#000000;stroke-width:2;stroke-linejoin:round;stroke-miterlimit:10;"/><path d="M53.98,8H55    c1.1,0,2-0.9,2-2s-0.9-2-2-2h-7c-1.1,0-2,0.9-2,2c-1.1,0-2,0.9-2,2c0,0.38,0.11,0.74,0.3,1.05" style="fill:none;stroke:#000000;stroke-width:2;stroke-linejoin:round;stroke-miterlimit:10;"/><path d="M52,16.58    c1.76-0.77,3-2.53,3-4.58v-1c0-1.13-0.39-2.16-1.02-3H48c0,1.1-0.9,2-2,2c-0.3,0-0.58-0.07-0.84-0.19c0,0.01,0,0.01,0,0.02" style="fill:none;stroke:#000000;stroke-width:2;stroke-linejoin:round;stroke-miterlimit:10;"/><path d="M51.04,16.89    c0.16-0.03,0.33-0.08,0.49-0.13c0.16-0.05,0.32-0.11,0.47-0.17" style="fill:none;stroke:#000000;stroke-width:2;stroke-linejoin:round;stroke-miterlimit:10;"/><line style="fill:none;stroke:#000000;stroke-width:2;stroke-linejoin:round;stroke-miterlimit:10;" x1="56" x2="56" y1="35" y2="27"/><path d="M52,21h3    c3.31,0,6,2.69,6,6v8.5c0,1.38-1.12,2.5-2.5,2.5c-0.69,0-1.32-0.28-1.77-0.73S56,36.19,56,35.5" style="fill:none;stroke:#000000;stroke-width:2;stroke-linejoin:round;stroke-miterlimit:10;"/><path d="M39.05,36.01    C39.02,35.85,39,35.68,39,35.5V27c0-3.31,2.69-6,6-6h3" style="fill:none;stroke:#000000;stroke-width:2;stroke-linejoin:round;stroke-miterlimit:10;"/><path d="M44,35.5    c0,1.38-1.12,2.5-2.5,2.5c-0.18,0-0.35-0.02-0.51-0.05" style="fill:none;stroke:#000000;stroke-width:2;stroke-linejoin:round;stroke-miterlimit:10;"/><line style="fill:none;stroke:#000000;stroke-width:2;stroke-linejoin:round;stroke-miterlimit:10;" x1="44" x2="44" y1="27" y2="35"/><path d="M56,35v0.5V58    c0,1.66-1.34,3-3,3c-0.83,0-1.58-0.34-2.12-0.88C50.34,59.58,50,58.83,50,58" style="fill:none;stroke:#000000;stroke-width:2;stroke-linejoin:round;stroke-miterlimit:10;"/><path d="M44,54v4    c0,1.66,1.34,3,3,3s3-1.34,3-3V38" style="fill:none;stroke:#000000;stroke-width:2;stroke-linejoin:round;stroke-miterlimit:10;"/><polyline points="21,10     28.98,28.61 30,31   " style="fill:none;stroke:#000000;stroke-width:2;stroke-linejoin:round;stroke-miterlimit:10;"/><polyline points="32,27     28.98,28.61 17,35   " style="fill:none;stroke:#000000;stroke-width:2;stroke-linejoin:round;stroke-miterlimit:10;"/><line style="fill:none;stroke:#000000;stroke-width:2;stroke-linejoin:round;stroke-miterlimit:10;" x1="28" x2="28" y1="3" y2="8"/><line style="fill:none;stroke:#000000;stroke-width:2;stroke-linejoin:round;stroke-miterlimit:10;" x1="3" x2="8" y1="28" y2="28"/><polyline points="51,21 52,28     50,30 48,28 49,21   " style="fill:none;stroke:#000000;stroke-width:2;stroke-linejoin:round;stroke-miterlimit:10;"/><path d="M48,16.59V21h1h2h1v-4.41    v-0.01c-0.15,0.07-0.31,0.13-0.47,0.18c-0.16,0.05-0.33,0.1-0.49,0.13C50.7,16.96,50.36,17,50,17" style="fill:none;stroke:#000000;stroke-width:2;stroke-linejoin:round;stroke-miterlimit:10;"/><path d="M48.93,16.88    c-0.13-0.03-0.27-0.06-0.4-0.1c-0.02-0.01-0.04-0.01-0.06-0.02c-0.16-0.05-0.32-0.11-0.47-0.18" style="fill:none;stroke:#000000;stroke-width:2;stroke-linejoin:round;stroke-miterlimit:10;"/><path d="M41,41v-3    c0-0.02,0-0.03-0.01-0.05c-0.97-0.2-1.74-0.97-1.94-1.94C39.03,36,39.02,36,39,36h-3c-1.1,0-2,0.9-2,2v3" style="fill:none;stroke:#000000;stroke-width:2;stroke-linejoin:round;stroke-miterlimit:10;"/><polyline points="28,46 28,41     34,41 41,41 44,41 46,41 46,46   " style="fill:none;stroke:#000000;stroke-width:2;stroke-linejoin:round;stroke-miterlimit:10;"/><polyline points="45.34,46 46,46     46,54 44,54 28,54 28,53   " style="fill:none;stroke:#000000;stroke-width:2;stroke-linejoin:round;stroke-miterlimit:10;"/><polyline points="37,44 37,46     37,49   " style="fill:none;stroke:#000000;stroke-width:2;stroke-linejoin:round;stroke-miterlimit:10;"/><polyline points="44,41 44,35.5     44,35   " style="fill:none;stroke:#000000;stroke-width:2;stroke-linejoin:round;stroke-miterlimit:10;"/><path d="M50.43,16.96    C50.28,16.97,50.15,17,50,17c-0.37,0-0.72-0.04-1.07-0.12c-0.13-0.02-0.27-0.06-0.4-0.1c-0.02,0-0.04-0.01-0.06-0.02    c-0.16-0.05-0.32-0.11-0.47-0.17v-0.01c-1.76-0.77-3-2.53-3-4.58v-1c0-0.41,0.06-0.8,0.16-1.17c-0.01-0.01-0.02-0.02-0.03-0.03    c-0.01-0.01-0.01-0.01-0.02-0.02c-0.14-0.07-0.26-0.15-0.38-0.24c-0.1-0.08-0.18-0.17-0.27-0.27c-0.05-0.07-0.1-0.14-0.15-0.21    L44.3,9.05C39.92,5.29,34.24,3,28,3C14.19,3,3,14.19,3,28s11.19,25,25,25v-7h9h8.34" style="fill:none;stroke:#000000;stroke-width:2;stroke-linejoin:round;stroke-miterlimit:10;"/></g></g></svg>