<?xml version="1.0" ?><!DOCTYPE svg  PUBLIC '-//W3C//DTD SVG 1.1//EN'  'http://www.w3.org/Graphics/SVG/1.1/DTD/svg11.dtd'><svg enable-background="new 0 0 64 64" id="Layer_1" version="1.1" viewBox="0 0 64 64" xml:space="preserve" xmlns="http://www.w3.org/2000/svg" xmlns:xlink="http://www.w3.org/1999/xlink"><g><path d="   M6.6,59.6h-4C1.7,59.6,1,58.9,1,58V43.6C1,42.7,1.7,42,2.6,42h4c0.9,0,1.6,0.7,1.6,1.6V58C8.3,58.9,7.5,59.6,6.6,59.6z" fill="none" stroke="#231F20" stroke-linecap="round" stroke-linejoin="round" stroke-miterlimit="10" stroke-width="1.5"/><path d="   M11.2,42.9c2.2-2.2,3.7-5.4,5-9.2c2,0,3.7,1.7,3.7,3.7c0,0.2,0,0.4,0,0.6l-1,6.8l5.5-0.2c2.6-0.1,4.5,2.2,4.1,4.8l-1.2,6.2   c-0.4,1.9-2,3.3-3.9,3.3h-6.7c-1.2,0-2.4-0.1-3.5-0.4l-1.7-0.4" fill="none" stroke="#231F20" stroke-linecap="round" stroke-linejoin="round" stroke-miterlimit="10" stroke-width="1.5"/><path d="   M52.7,57.9L51,58.4c-1.2,0.3-2.3,0.4-3.5,0.4h-6.7c-1.9,0-3.6-1.4-4-3.3l-1.2-6.2c-0.5-2.5,1.5-4.8,4.1-4.8l5.5,0.2l-1-6.8   c0-0.2,0-0.4,0-0.6c0-2,1.6-3.7,3.7-3.7c1.2,3.8,2.8,7,5,9.2" fill="none" stroke="#231F20" stroke-linecap="round" stroke-linejoin="round" stroke-miterlimit="10" stroke-width="1.5"/><path d="   M57.4,59.6h4c0.9,0,1.6-0.7,1.6-1.6V43.6c0-0.9-0.7-1.6-1.6-1.6h-4c-0.9,0-1.6,0.7-1.6,1.6V58C55.7,58.9,56.5,59.6,57.4,59.6z" fill="none" stroke="#231F20" stroke-linecap="round" stroke-linejoin="round" stroke-miterlimit="10" stroke-width="1.5"/><circle cx="32" cy="23.2" fill="none" r="11.9" stroke="#231F20" stroke-linecap="round" stroke-linejoin="round" stroke-miterlimit="10" stroke-width="1.5"/><path d="   M29.5,28.8c-0.5,0-1-0.2-1.4-0.6l-2.4-2.4c-0.8-0.8-0.8-2,0-2.8c0.8-0.8,2-0.8,2.8,0l1,1l5.9-5.9c0.8-0.8,2-0.8,2.8,0   c0.8,0.8,0.8,2,0,2.8l-7.3,7.3C30.6,28.6,30,28.8,29.5,28.8z" fill="none" stroke="#231F20" stroke-linecap="round" stroke-linejoin="round" stroke-miterlimit="10" stroke-width="1.5"/><line fill="none" stroke="#231F20" stroke-linecap="round" stroke-linejoin="round" stroke-miterlimit="10" stroke-width="1.5" x1="32" x2="32" y1="7.1" y2="4.4"/><line fill="none" stroke="#231F20" stroke-linecap="round" stroke-linejoin="round" stroke-miterlimit="10" stroke-width="1.5" x1="48.1" x2="50.8" y1="23.2" y2="23.2"/><line fill="none" stroke="#231F20" stroke-linecap="round" stroke-linejoin="round" stroke-miterlimit="10" stroke-width="1.5" x1="13.2" x2="15.9" y1="23.2" y2="23.2"/><line fill="none" stroke="#231F20" stroke-linecap="round" stroke-linejoin="round" stroke-miterlimit="10" stroke-width="1.5" x1="43.4" x2="45.3" y1="11.8" y2="9.9"/><line fill="none" stroke="#231F20" stroke-linecap="round" stroke-linejoin="round" stroke-miterlimit="10" stroke-width="1.5" x1="18.7" x2="20.6" y1="9.9" y2="11.8"/></g></svg>