<?xml version="1.0" ?><svg data-name="Layer 1" id="Layer_1" viewBox="0 0 64 64" xmlns="http://www.w3.org/2000/svg"><defs><style>.cls-1{fill:#36c;}.cls-2{fill:#3b4551;}</style></defs><title/><path class="cls-1" d="M54.6,59.2l-4.2-.4a1.3,1.3,0,0,0-1.2.6l-2.1,3.5a1.3,1.3,0,0,1-2.2-.1L34.2,41.3A17,17,0,0,0,45,35.4h0l10.9,22A1.3,1.3,0,0,1,54.6,59.2Z"/><path class="cls-1" d="M29.8,41.3,19.2,62.8a1.3,1.3,0,0,1-2.2.1l-2.1-3.5a1.3,1.3,0,0,0-1.2-.6l-4.2.4a1.3,1.3,0,0,1-1.3-1.8L19,35.4h0A17,17,0,0,0,29.8,41.3Z"/><path class="cls-2" d="M56,24.5h0a7.4,7.4,0,0,1-2.5,5.5,7.4,7.4,0,0,0-2.4,5.8c0,.1,0,.2,0,.4a7.5,7.5,0,0,1-1.2,4.2L47,34.4l-.5-1a17,17,0,1,0-28.9,0l-.5,1-2.9,5.9a7.6,7.6,0,0,1-1.2-4.5,7.4,7.4,0,0,0-2.4-5.8A7.4,7.4,0,0,1,8,24.5H8A7.4,7.4,0,0,1,10.5,19a7.4,7.4,0,0,0,2.4-5.8c0-.1,0-.2,0-.4a7.4,7.4,0,0,1,7.8-7.4,7.4,7.4,0,0,0,5.8-2.4,7.4,7.4,0,0,1,11,0,7.4,7.4,0,0,0,5.8,2.4h.4a7.4,7.4,0,0,1,7.4,7.8A7.4,7.4,0,0,0,53.5,19,7.4,7.4,0,0,1,56,24.5Z"/><path class="cls-1" d="M32,9.7a14.7,14.7,0,0,0-1,29.4H33A14.7,14.7,0,0,0,32,9.7ZM26.9,32.4a.9.9,0,0,1-.9.9H23.1a.9.9,0,0,1-.9-.9v-8a.9.9,0,0,1,.9-.9H26a.9.9,0,0,1,.9.9Zm13.9-6.1a1.3,1.3,0,0,1-.4,2.4,1.3,1.3,0,0,1-.5,2.2,1.3,1.3,0,0,1,.4,1,1.3,1.3,0,0,1-1.4,1.3H30.3A2.3,2.3,0,0,1,28,30.8v-6a1.2,1.2,0,0,1,.8-1.1,9.1,9.1,0,0,0,3.1-2.3A8,8,0,0,0,33.1,17a1.5,1.5,0,0,1,.2-1c.3-.4,1.3-1,2.2.5a5,5,0,0,1,.6,3.4c-.2.9-.7,1.7-.9,2.6a.9.9,0,0,0,.9,1h4.3a1.3,1.3,0,0,1,.3,2.6Z"/></svg>