<?xml version="1.0" ?><svg id="Layer_1" style="enable-background:new 0 0 128 128;" version="1.1" viewBox="0 0 128 128" xml:space="preserve" xmlns="http://www.w3.org/2000/svg" xmlns:xlink="http://www.w3.org/1999/xlink"><style type="text/css">
	.st0{fill:#1D75B8;}
	.st1{fill:#2D3E50;}
</style><g><path class="st0" d="M43.9,55.4c0-2.2-1.8-4-4-4H5.7c-2.2,0-4,1.8-4,4c0,2.2,1.8,4,4,4h34.2C42.1,59.5,43.9,57.6,43.9,55.4z"/><path class="st0" d="M43.9,93.5c0-2.2-1.8-4-4-4H15.8c-2.2,0-4,1.8-4,4c0,2.2,1.8,4,4,4h24.1C42.1,97.5,43.9,95.7,43.9,93.5z"/><path class="st0" d="M39.9,70.5H24.1c-2.2,0-4,1.8-4,4c0,2.2,1.8,4,4,4h15.8c2.1,0,3.7-1.5,4-3.5l0-0.5c0-1.1-0.4-2.1-1.2-2.8   C41.9,70.9,40.9,70.5,39.9,70.5z"/><path class="st1" d="M115.3,38.1c0,0,7.4-9.2,7.6-9.8c1-2.4,0.3-4.9-1.4-6.5c-1.9-1.8-4.8-2-6.9-0.6c-0.4,0.3-9,7.2-9,7.2   c-7.5-5.9-16.5-9.6-25.9-10.9l-1.2-0.1l1.1-5.8c3.9-0.7,6.9-4.1,6.9-8.2H58.2c0,4.4,3.5,8,7.8,8.3l1.1,5.6L66,17.4   c-12.2,1.6-23.3,7.2-31.7,16c-2,2.1-2.1,5.4-0.3,7.7c2.2,2.6,6.1,2.8,8.5,0.3C50,33.6,60.2,28.9,71,28.5c23.1-1,42.8,17,43.8,40.2   c0.5,11.2-3.4,21.9-11,30.2c-7.6,8.3-17.9,13.1-29.1,13.6c-8.8,0.4-17.3-1.9-24.5-6.6c-1-0.6-2-0.9-3.1-0.9c-1.2,0-2.5,0.4-3.5,1.1   c-3.3,2.4-3.3,7.3-0.1,9.7c1.3,0.9,2.4,1.8,3.4,2.3c8.1,4.5,17.3,6.9,26.9,6.7c14.3-0.2,27.6-6,37.5-16.2   c9.9-10.3,15.3-23.8,15.1-38C126.3,58.8,122.4,47.3,115.3,38.1z"/><path class="st0" d="M78.6,78.1c0.5-0.4,0.9-0.8,1.3-1.2c0.2-0.2,0.4-0.4,0.5-0.7l1-1.6l13-20.8c0.3-0.4,0.4-0.9,0.5-1.3   c0.3-1.4-0.1-2.8-1.1-3.8c-0.6-0.6-1.3-1-2.1-1.1c-1.1-0.2-2.2,0-3.1,0.6L68.7,61.7c-0.9,0.4-1.8,1-2.5,1.7l0,0   c-1.6,1.4-2.6,3.4-3,5.7c-0.7,5.3,2.9,10.2,8.2,10.9C74,80.3,76.5,79.7,78.6,78.1z"/></g></svg>