<?xml version="1.0" ?><svg id="imagination" viewBox="0 0 512 512" xmlns="http://www.w3.org/2000/svg"><title/><path d="M376.27,411.78a78.1831,78.1831,0,0,1-22.78,16.61,90.3711,90.3711,0,0,0-30.43-12.17c-13.79-2.82-23.12-6.54-29.42-10.41,0,0-15.54-18.05-8.98-47.95.24-1.12.51-2.25.82-3.4l.18-.09v-.01a80.0082,80.0082,0,0,0,36.58-38.69,8.2972,8.2972,0,0,1,7.77-4.8h.12s-6.19,70.46,40.14,81.53A11.7279,11.7279,0,0,1,376.27,411.78Z" style="fill:#ff4b7c"/><path d="M213.93,368.98a75.595,75.595,0,0,1-9.95,36.87l-.01.01c-6.3,3.85-15.61,7.56-29.34,10.36a90.9567,90.9567,0,0,0-27.17,10.17,76.8351,76.8351,0,0,1-18.94-14.61,11.7207,11.7207,0,0,1,6-19.38c44.11-10.54,40.61-74.92,40.18-81.06a80.0358,80.0358,0,0,0,37.33,42.5c.05.02.09.05.14.07q.36,1.5.63,2.97A64.2328,64.2328,0,0,1,213.93,368.98Z" style="fill:#ff4b7c"/><path d="M388.27,470.32c0,19.72-62.43,35.7-139.43,35.7s-139.42-15.98-139.42-35.7a9.7655,9.7655,0,0,1,.72-3.65v-.01c.02-.05.15-.35.39-.87a.0349.0349,0,0,1,.01-.02c2.8-6.05,20.6-40.68,64.09-49.55,13.73-2.8,23.04-6.51,29.34-10.36,0,7.95,20.08,14.98,44.84,14.98s44.83-7.07,44.83-15.03c6.3,3.87,15.63,7.59,29.42,10.41,42.1,8.59,60.2,41.55,63.87,49.15a11.9571,11.9571,0,0,1,.69,1.51l.03.06h-.01A9.72,9.72,0,0,1,388.27,470.32Z" style="fill:#ffcd2c"/><circle cx="248.6083" cy="475.9551" r="5.3627" style="fill:#1a92ea"/><circle cx="248.6083" cy="449.7713" r="5.3627" style="fill:#1a92ea"/><path d="M344.73,294.57c0,9-6.54,16.3-14.6,16.3h-.12a8.2972,8.2972,0,0,0-7.77,4.8,80.0082,80.0082,0,0,1-36.58,38.69v.01l-.18.09c-.31,1.15-.58,2.28-.82,3.4-6.56,29.9,8.98,47.95,8.98,47.95,0,7.96-20.07,15.03-44.83,15.03s-44.84-7.03-44.84-14.98l.01-.01a75.595,75.595,0,0,0,9.95-36.87,64.2328,64.2328,0,0,0-1.13-12.1q-.27-1.47-.63-2.97c-.05-.02-.09-.05-.14-.07a79.9694,79.9694,0,0,1-39.93-50.77c13.05-18.68,34.26-28.47,62-28.47,14.61,0,26.64-3.47,35.8-10.29v.01s2.35-2.02,2.87-2.59h.01c6.59,4.99,23.97,16.04,50.73,18.32a13.33,13.33,0,0,1,6.62-1.78C338.19,278.27,344.73,285.57,344.73,294.57Z" style="fill:#ffdadd"/><path d="M250.1566,314.8682H243.322a2.5877,2.5877,0,0,1-1.9918-4.24l6.8346-8.24a2.5877,2.5877,0,0,1,4.5794,1.652v8.24A2.5876,2.5876,0,0,1,250.1566,314.8682Z" style="fill:#f5b6ba"/><path d="M249.3481,335.9106a23.6967,23.6967,0,0,1-15.5322-6.1655,4,4,0,0,1,5.4595-5.8476c1.0015.9174,9.9307,8.5752,19.6807-.0635a4,4,0,0,1,5.3056,5.9873C259.2,334.3062,254.0342,335.9106,249.3481,335.9106Z" style="fill:#e82e5b"/><ellipse cx="207.6838" cy="319.528" rx="12.319" ry="9.5938" style="fill:#f7c4c8"/><ellipse cx="290.4776" cy="319.528" rx="12.319" ry="9.5938" style="fill:#f7c4c8"/><path d="M276.8774,305.4712a13.736,13.736,0,0,1-9.7885-4.189,4,4,0,0,1,5.8432-5.4638c.8638.8735,4.0225,3.3891,8.8189-.3916a4,4,0,1,1,4.9511,6.2841A15.7522,15.7522,0,0,1,276.8774,305.4712Z" style="fill:#e82e5b"/><path d="M221.2822,305.4712a13.736,13.736,0,0,1-9.7885-4.189,4,4,0,0,1,5.8432-5.4638c.8643.8735,4.0225,3.3891,8.8189-.3916a4,4,0,0,1,4.9511,6.2841A15.7522,15.7522,0,0,1,221.2822,305.4712Z" style="fill:#e82e5b"/><path d="M328.92,278.33a13.2357,13.2357,0,0,0-5.4,1.72h-.01a102.56,102.56,0,0,1-43.97-13.78,76.3362,76.3362,0,0,1-6.7641-4.5407h-.0054c-.519.5693-2.8705,2.5906-2.8705,2.5906v-.01c-9.16,6.82-21.19,10.29-35.8,10.29-32.14,0-55.51,13.14-67.6,38.01a3.9972,3.9972,0,0,1-3.6,2.26,3.8639,3.8639,0,0,1-1.74-.41,3.9874,3.9874,0,0,1-1.85-5.34,77.8651,77.8651,0,0,1,6.9959-11.7347,17.7262,17.7262,0,0,0,3.3918-11.1068q-.0567-1.443-.0577-2.8985a79.72,79.72,0,0,1,159.28-5.05Z" style="fill:#ff4b7c"/><path d="M290.2,244.24a40.5794,40.5794,0,0,1-10.66,22.03,76.3711,76.3711,0,0,1-6.75-4.53,33.303,33.303,0,0,0,9.44-18.24,4.0022,4.0022,0,0,1,7.97.74Z" style="fill:#e81167"/><path d="M285.66,354.36v.01l-.18.09c-.31,1.15-.58,2.28-.82,3.4-4.54,12.42-18.93,21.59-35.78,21.59-17.31,0-31.97-9.64-36.08-22.57q-.27-1.47-.63-2.97a79.4848,79.4848,0,0,0,73.49.45Z" style="fill:#f5b6ba"/><path d="M418.952,264.436c-7.8135,2.3608-11.2727,5.82-13.6335,13.6335a2.6465,2.6465,0,0,1-5.0514,0c-2.3608-7.8135-5.82-11.2727-13.6335-13.6335a2.6465,2.6465,0,0,1,0-5.0514c7.8136-2.3608,11.2727-5.82,13.6335-13.6335a2.6465,2.6465,0,0,1,5.0514,0c2.3608,7.8136,5.82,11.2727,13.6335,13.6335A2.6465,2.6465,0,0,1,418.952,264.436Z" style="fill:#ffcd2c"/><path d="M110.58,264.436c-7.8135,2.3608-11.2727,5.82-13.6335,13.6335a2.6465,2.6465,0,0,1-5.0514,0c-2.3608-7.8135-5.82-11.2727-13.6335-13.6335a2.6465,2.6465,0,0,1,0-5.0514c7.8136-2.3608,11.2727-5.82,13.6335-13.6335a2.6465,2.6465,0,0,1,5.0514,0c2.3608,7.8136,5.82,11.2727,13.6335,13.6335A2.6465,2.6465,0,0,1,110.58,264.436Z" style="fill:#ffcd2c"/><path d="M372.5142,5.7466a107.1476,107.1476,0,0,0-50.4438,12.05,26.247,26.247,0,0,1-24.1128-.0905,107.7626,107.7626,0,0,0-98.6985,0,26.2462,26.2462,0,0,1-24.1127.0906,107.1482,107.1482,0,0,0-50.4437-12.05C65.4949,6.2418,17.4368,55.2169,18.01,114.4239A107.6178,107.6178,0,0,0,125.6224,220.978c3.0162,0,6.0012-.1316,8.9536-.3782a14.583,14.583,0,0,1,5.11.4674l.0277.0077a60.4986,60.4986,0,0,1,21.562,10.77,61.8454,61.8454,0,0,1,6.11,5.5793,63.077,63.077,0,0,1,9.875,14.0218l.1217.2368a7.5507,7.5507,0,0,0,8.5861,3.8035,7.7015,7.7015,0,0,0,5.4259-9.1431,80.9088,80.9088,0,0,0-7.4757-20.3519,83.3853,83.3853,0,0,0-6.0359-9.5509q-1.7023-2.277-3.5595-4.4562a1.916,1.916,0,0,1,.5984-2.9443l.14-.0724a26.1355,26.1355,0,0,1,24.1236.0083,107.7615,107.7615,0,0,0,98.8058.021,26.3663,26.3663,0,0,1,24.2207,0,107.6461,107.6461,0,0,0,156.9951-94.5728C479.78,55.2171,431.722,6.2419,372.5142,5.7466Z" style="fill:#1a92ea"/><path d="M479.21,114.3948a107.6518,107.6518,0,0,1-157,94.57,26.3511,26.3511,0,0,0-24.22,0,107.7619,107.7619,0,0,1-98.8-.02,26.1374,26.1374,0,0,0-24.13-.01c-.05.02-.09.05-.14.07a1.9224,1.9224,0,0,0-.6,2.95q1.86,2.175,3.56,4.45a83.6337,83.6337,0,0,1,6.04,9.55,80.7388,80.7388,0,0,1,7.47,20.35,7.7092,7.7092,0,0,1-5.42,9.15,7.5584,7.5584,0,0,1-8.59-3.81l-.12-.23a58.6507,58.6507,0,0,0-15.98-19.6,60.2523,60.2523,0,0,0-21.57-10.77c-.01-.01-.01-.01-.02-.01a14.6948,14.6948,0,0,0-5.11-.47c-2.96.25-5.94.38-8.96.38a107.6158,107.6158,0,0,1-107.61-106.55,106.39,106.39,0,0,1,.53-11.76,107.5967,107.5967,0,0,0,107.08,96.93c3.02,0,6-.13,8.96-.37a13.9009,13.9009,0,0,1,1.58-.05c4.15-.27,16.64-1.94,39.15-11.72a.16.16,0,0,0,.08-.03,25.3747,25.3747,0,0,1,2.57-1.13,26.16,26.16,0,0,1,21.23,1.3,107.7619,107.7619,0,0,0,98.8.02,26.3511,26.3511,0,0,1,24.22,0,107.6515,107.6515,0,0,0,156.47-84.95A106.39,106.39,0,0,1,479.21,114.3948Z" style="fill:#0a76ed"/><path d="M452.9624,103.0889a4.0008,4.0008,0,0,1-3.977-3.6192,78.9006,78.9006,0,0,0-2.3741-13.1689,4,4,0,1,1,7.72-2.1006,87.03,87.03,0,0,1,2.6181,14.5068,4,4,0,0,1-3.6006,4.3633C453.2188,103.0825,453.09,103.0889,452.9624,103.0889Z" style="fill:#8ac7f4"/><path d="M442.7954,71.0537a3.9969,3.9969,0,0,1-3.4414-1.9556,70.7335,70.7335,0,0,0-20.8188-22.0449,4,4,0,1,1,4.55-6.58,78.6665,78.6665,0,0,1,23.144,24.5352,4.0009,4.0009,0,0,1-3.4336,6.0454Z" style="fill:#8ac7f4"/><path d="M159.36,134.39l-53.72,27.03a3.5214,3.5214,0,0,1-4.72-1.56l-6.87-13.65a56.6509,56.6509,0,0,0,28.46-68.48l6.65-3.35a3.53,3.53,0,0,1,4.73,1.56l27.03,53.72A3.5157,3.5157,0,0,1,159.36,134.39Z" style="fill:#ffbb2c"/><path d="M125.38,95.54a56.6179,56.6179,0,0,1-31.33,50.67L73.88,106.14a3.5281,3.5281,0,0,1,1.57-4.73l47.06-23.68A56.133,56.133,0,0,1,125.38,95.54Z" style="fill:#ffcd2c"/><path d="M407.51,154.71l-79.1-27.09a3.7119,3.7119,0,0,1-1.07-6.45L341.9,109.9a56.6609,56.6609,0,0,0,59.58-3.13l10.84,43.53A3.7135,3.7135,0,0,1,407.51,154.71Z" style="fill:#ffbb2c"/><path d="M401.48,106.77a56.6609,56.6609,0,0,1-59.58,3.13L388,74.21a3.7187,3.7187,0,0,1,5.88,2.04Z" style="fill:#ffcd2c"/><path d="M292.25,98.43a45.072,45.072,0,0,1-19.4,30.23,9.9046,9.9046,0,0,0-4.47,8.19v7.96a3.5721,3.5721,0,0,1-3.57,3.57H230.68a3.5743,3.5743,0,0,1-3.58-3.57v-7.96a9.5867,9.5867,0,0,0-4.22-8.03,45.0105,45.0105,0,0,1-19.99-33.07,56.6252,56.6252,0,0,0,89.36,2.68Z" style="fill:#cde7fa"/><path d="M292.83,91.22a45.1591,45.1591,0,0,1-.58,7.21,56.6252,56.6252,0,0,1-89.36-2.68,45.0841,45.0841,0,1,1,89.94-4.53Z" style="fill:#fff"/><path d="M265.1421,165.3149H230.3462a4,4,0,0,1,0-8h34.7959a4,4,0,0,1,0,8Z" style="fill:#fff"/><path d="M213.5732,95.9844a4.0013,4.0013,0,0,1-3.9375-3.3228C207.1973,78.4707,215.8008,71.27,216.168,70.97a4,4,0,0,1,5.09,6.1719c-.2876.25-5.3462,4.8047-3.7373,14.1646a4.001,4.001,0,0,1-3.2646,4.62A4.0729,4.0729,0,0,1,213.5732,95.9844Z" style="fill:#8ac7f4"/><path d="M226.2534,67.5322a4,4,0,0,1-2.8818-6.7734,17.3826,17.3826,0,0,1,5.6933-3.9692,4,4,0,1,1,3.15,7.3535,9.4316,9.4316,0,0,0-3.0791,2.1626A3.9882,3.9882,0,0,1,226.2534,67.5322Z" style="fill:#8ac7f4"/><path d="M268.4,102.1a3.9989,3.9989,0,0,1-4,4,3.15,3.15,0,0,0-3.15,3.15v7.44a8.86,8.86,0,0,1-8.85,8.85h-.83v22.84h-8V125.54h-.83a8.86,8.86,0,0,1-8.85-8.85v-7.44a3.15,3.15,0,0,0-3.15-3.15,4.0419,4.0419,0,0,1-4.05-4,3.9565,3.9565,0,0,1,3.95-4,11.182,11.182,0,0,1,11.25,11.15v7.44a.8493.8493,0,0,0,.85.85h9.66a.8493.8493,0,0,0,.85-.85v-7.44A11.16,11.16,0,0,1,264.4,98.1,3.9989,3.9989,0,0,1,268.4,102.1Z" style="fill:#1a92ea"/></svg>