<?xml version="1.0" ?><svg id="Image" viewBox="0 0 64 64" xmlns="http://www.w3.org/2000/svg"><path d="M5,28,10.683,3.373A1.771,1.771,0,0,1,12.409,2a2,2,0,0,1,1.949,1.55L20,28" fill="none" stroke="#464747" stroke-linecap="round" stroke-linejoin="round" stroke-width="2"/><line fill="none" stroke="#464747" stroke-linecap="round" stroke-linejoin="round" stroke-width="2" x1="17.46" x2="7.54" y1="17" y2="17"/><polyline fill="none" points="28 2 28 28 40 28" stroke="#464747" stroke-linecap="round" stroke-linejoin="round" stroke-width="2"/><polyline fill="none" points="47 2 47 28 59 28" stroke="#464747" stroke-linecap="round" stroke-linejoin="round" stroke-width="2"/><path d="M31,44V61.5a.5.5,0,0,1-.5.5.849.849,0,0,1-.743-.437L20.243,44.437A.849.849,0,0,0,19.5,44a.5.5,0,0,0-.5.5V62" fill="none" stroke="#464747" stroke-linecap="round" stroke-linejoin="round" stroke-width="2"/><line fill="none" stroke="#464747" stroke-linecap="round" stroke-linejoin="round" stroke-width="2" x1="12" x2="8" y1="44" y2="44"/><line fill="none" stroke="#464747" stroke-linecap="round" stroke-linejoin="round" stroke-width="2" x1="12" x2="8" y1="62" y2="62"/><line fill="none" stroke="#464747" stroke-linecap="round" stroke-linejoin="round" stroke-width="2" x1="10" x2="10" y1="44" y2="62"/><path d="M52,62V37.151A1.151,1.151,0,0,0,50.849,36a1.5,1.5,0,0,0-1.286.728L44,46" fill="none" stroke="#464747" stroke-linecap="round" stroke-linejoin="round" stroke-width="2"/><line fill="none" stroke="#464747" stroke-linecap="round" stroke-linejoin="round" stroke-width="2" x1="47" x2="57" y1="62" y2="62"/></svg>