<?xml version="1.0" ?><svg id="Layer_1" style="enable-background:new 0 0 90 90;" version="1.1" viewBox="0 0 90 90" xml:space="preserve" xmlns="http://www.w3.org/2000/svg" xmlns:xlink="http://www.w3.org/1999/xlink"><style type="text/css">
	.st0{fill:#DEE7EF;}
	.st1{opacity:0.1;}
	.st2{clip-path:url(#SVGID_2_);}
	.st3{fill:#FFFFFF;}
	.st4{fill:#FFFFFF;stroke:#165083;stroke-width:2.3945;stroke-linecap:round;stroke-linejoin:round;stroke-miterlimit:10;}
	.st5{fill:#75BCF6;stroke:#165083;stroke-width:2.3945;stroke-linecap:round;stroke-linejoin:round;stroke-miterlimit:10;}
	.st6{fill:#FFE791;stroke:#165083;stroke-width:2.3945;stroke-linecap:round;stroke-linejoin:round;stroke-miterlimit:10;}
	.st7{fill:#B3ACF9;stroke:#165083;stroke-width:2.3945;stroke-linecap:round;stroke-linejoin:round;stroke-miterlimit:10;}
	.st8{fill:#DEE7EF;stroke:#165083;stroke-width:2.3945;stroke-linecap:round;stroke-linejoin:round;stroke-miterlimit:10;}
	.st9{fill:#FF9C9C;stroke:#165083;stroke-width:2.3945;stroke-linecap:round;stroke-linejoin:round;stroke-miterlimit:10;}
	.st10{fill:#A2E6A2;stroke:#165083;stroke-width:2.3945;stroke-linecap:round;stroke-linejoin:round;stroke-miterlimit:10;}
	.st11{fill:#FFFFFF;stroke:#165083;stroke-width:1.5;stroke-linecap:round;stroke-linejoin:round;stroke-miterlimit:10;}
	.st12{fill:#75BCF6;stroke:#165083;stroke-width:1.5;stroke-linecap:round;stroke-linejoin:round;stroke-miterlimit:10;}
	.st13{fill:#FFE791;stroke:#165083;stroke-width:1.5;stroke-linecap:round;stroke-linejoin:round;stroke-miterlimit:10;}
	.st14{fill:#B3ACF9;stroke:#165083;stroke-width:1.5;stroke-linecap:round;stroke-linejoin:round;stroke-miterlimit:10;}
	.st15{fill:#DEE7EF;stroke:#165083;stroke-width:1.5;stroke-linecap:round;stroke-linejoin:round;stroke-miterlimit:10;}
	.st16{fill:#FF9C9C;stroke:#165083;stroke-width:1.5;stroke-linecap:round;stroke-linejoin:round;stroke-miterlimit:10;}
	.st17{fill:#A2E6A2;stroke:#165083;stroke-width:1.5;stroke-linecap:round;stroke-linejoin:round;stroke-miterlimit:10;}
</style><g><g><circle class="st0" cx="45" cy="45" r="45"/></g><g class="st1"><g><defs><circle cx="45" cy="45" id="SVGID_1_" r="45"/></defs><clipPath id="SVGID_2_"><use style="overflow:visible;" xlink:href="#SVGID_1_"/></clipPath><g class="st2"><rect class="st3" height="34" width="15.6" x="37.2" y="37.7"/><path class="st4" d="M37.2,48.9V62c0,1.9-1.5,3.5-3.4,3.5l0,0c-1.9,0-3.4-1.6-3.4-3.5V26.8c0-4.5,3.5-8.1,7.8-8.1h13.6      c4.3,0,7.8,3.6,7.8,8.1V62c0,1.9-1.5,3.5-3.4,3.5l0,0c-1.9,0-3.4-1.6-3.4-3.5V48.8"/><g><path class="st4" d="M45,63.5v24c0,2.1-1.7,3.8-3.8,3.8H41c-2.1,0-3.8-1.7-3.8-3.8V43.4"/><path class="st4" d="M52.8,43.4v44.1c0,2.1-1.7,3.8-3.8,3.8h-0.3c-2.1,0-3.8-1.7-3.8-3.8v-24"/></g><ellipse class="st4" cx="45" cy="6.1" rx="7.1" ry="7.4"/><g><g><path class="st5" d="M85.1,0.3L86.4,3c0.4,0.9,1.3,1.5,2.3,1.7l2.9,0.4c2.5,0.4,3.5,3.5,1.7,5.3l-2.1,2.1        c-0.7,0.7-1.1,1.7-0.9,2.7l0.5,2.9c0.4,2.5-2.2,4.4-4.4,3.3L83.8,20c-0.9-0.5-2-0.5-2.8,0l-2.6,1.4c-2.2,1.2-4.9-0.7-4.4-3.3        l0.5-2.9c0.2-1-0.2-2-0.9-2.7l-2.1-2.1c-1.8-1.8-0.8-4.9,1.7-5.3L76,4.7c1-0.1,1.9-0.8,2.3-1.7l1.3-2.6        C80.8-1.9,84-1.9,85.1,0.3z"/><path class="st6" d="M85.1,32.3l1.3,2.6c0.4,0.9,1.3,1.5,2.3,1.7l2.9,0.4c2.5,0.4,3.5,3.5,1.7,5.3l-2.1,2.1        c-0.7,0.7-1.1,1.7-0.9,2.7l0.5,2.9c0.4,2.5-2.2,4.4-4.4,3.3l-2.6-1.4c-0.9-0.5-2-0.5-2.8,0l-2.6,1.4c-2.2,1.2-4.9-0.7-4.4-3.3        l0.5-2.9c0.2-1-0.2-2-0.9-2.7l-2.1-2.1c-1.8-1.8-0.8-4.9,1.7-5.3l2.9-0.4c1-0.1,1.9-0.8,2.3-1.7l1.3-2.6        C80.8,30,84,30,85.1,32.3z"/><path class="st7" d="M85.1,64.3l1.3,2.6c0.4,0.9,1.3,1.5,2.3,1.7l2.9,0.4c2.5,0.4,3.5,3.5,1.7,5.3l-2.1,2.1        c-0.7,0.7-1.1,1.7-0.9,2.7l0.5,2.9c0.4,2.5-2.2,4.4-4.4,3.3l-2.6-1.4c-0.9-0.5-2-0.5-2.8,0l-2.6,1.4c-2.2,1.2-4.9-0.7-4.4-3.3        l0.5-2.9c0.2-1-0.2-2-0.9-2.7l-2.1-2.1c-1.8-1.8-0.8-4.9,1.7-5.3l2.9-0.4c1-0.1,1.9-0.8,2.3-1.7l1.3-2.6        C80.8,62,84,62,85.1,64.3z"/></g><g><path class="st8" d="M10.4,0.3L11.7,3C12.1,3.9,13,4.5,14,4.7l2.9,0.4c2.5,0.4,3.5,3.5,1.7,5.3l-2.1,2.1        c-0.7,0.7-1.1,1.7-0.9,2.7l0.5,2.9c0.4,2.5-2.2,4.4-4.4,3.3L9,19.9c-0.9-0.5-2-0.5-2.8,0l-2.6,1.4c-2.2,1.2-4.9-0.7-4.4-3.3        l0.5-2.9c0.2-1-0.2-2-0.9-2.7l-2.1-2.1C-5.1,8.5-4.1,5.4-1.6,5l2.9-0.4c1-0.1,1.9-0.8,2.3-1.7l1.3-2.6C6-1.9,9.2-1.9,10.4,0.3        z"/><path class="st9" d="M10.4,32.3l1.3,2.6c0.4,0.9,1.3,1.5,2.3,1.7l2.9,0.4c2.5,0.4,3.5,3.5,1.7,5.3l-2.1,2.1        c-0.7,0.7-1.1,1.7-0.9,2.7l0.5,2.9c0.4,2.5-2.2,4.4-4.4,3.3L9,51.9c-0.9-0.5-2-0.5-2.8,0l-2.6,1.4c-2.2,1.2-4.9-0.7-4.4-3.3        l0.5-2.9c0.2-1-0.2-2-0.9-2.7l-2.1-2.1c-1.8-1.8-0.8-4.9,1.7-5.3l2.9-0.4c1-0.1,1.9-0.8,2.3-1.7l1.3-2.6        C6,30,9.2,30,10.4,32.3z"/><path class="st10" d="M10.4,64.3l1.3,2.6c0.4,0.9,1.3,1.5,2.3,1.7l2.9,0.4c2.5,0.4,3.5,3.5,1.7,5.3l-2.1,2.1        c-0.7,0.7-1.1,1.7-0.9,2.7l0.5,2.9c0.4,2.5-2.2,4.4-4.4,3.3L9,83.9c-0.9-0.5-2-0.5-2.8,0l-2.6,1.4c-2.2,1.2-4.9-0.7-4.4-3.3        l0.5-2.9c0.2-1-0.2-2-0.9-2.7l-2.1-2.1c-1.8-1.8-0.8-4.9,1.7-5.3l2.9-0.4c1-0.1,1.9-0.8,2.3-1.7l1.3-2.6        C6,62,9.2,62,10.4,64.3z"/></g></g></g></g></g><g><rect class="st3" height="21.2" width="9.8" x="40.1" y="40.5"/><path class="st11" d="M40.1,47.4v8.2c0,1.2-1,2.2-2.1,2.2l0,0c-1.2,0-2.1-1-2.1-2.2v-22c0-2.8,2.2-5,4.9-5h8.6    c2.7,0,4.9,2.3,4.9,5v22c0,1.2-1,2.2-2.1,2.2l0,0c-1.2,0-2.1-1-2.1-2.2v-8.2"/><g><path class="st11" d="M45,56.6v15c0,1.3-1.1,2.4-2.4,2.4h-0.2c-1.3,0-2.4-1.1-2.4-2.4V44"/><path class="st11" d="M49.9,44v27.5c0,1.3-1.1,2.4-2.4,2.4h-0.2c-1.3,0-2.4-1.1-2.4-2.4v-15"/></g><ellipse class="st11" cx="45" cy="20.7" rx="4.5" ry="4.6"/><g><g><path class="st12" d="M70.3,17.2l0.8,1.6c0.3,0.6,0.8,1,1.5,1.1l1.8,0.3c1.6,0.2,2.2,2.2,1.1,3.3l-1.3,1.3      c-0.5,0.4-0.7,1.1-0.6,1.7l0.3,1.8c0.3,1.6-1.4,2.8-2.8,2l-1.6-0.9c-0.6-0.3-1.2-0.3-1.8,0L66,30.2c-1.4,0.7-3.1-0.5-2.8-2      l0.3-1.8c0.1-0.6-0.1-1.3-0.6-1.7l-1.3-1.3c-1.1-1.1-0.5-3,1.1-3.3l1.8-0.3c0.6-0.1,1.2-0.5,1.5-1.1l0.8-1.6      C67.5,15.7,69.5,15.7,70.3,17.2z"/><path class="st13" d="M70.3,37.1l0.8,1.6c0.3,0.6,0.8,1,1.5,1.1l1.8,0.3c1.6,0.2,2.2,2.2,1.1,3.3l-1.3,1.3      c-0.5,0.4-0.7,1.1-0.6,1.7l0.3,1.8c0.3,1.6-1.4,2.8-2.8,2l-1.6-0.9c-0.6-0.3-1.2-0.3-1.8,0L66,50.2c-1.4,0.7-3.1-0.5-2.8-2      l0.3-1.8c0.1-0.6-0.1-1.3-0.6-1.7l-1.3-1.3c-1.1-1.1-0.5-3,1.1-3.3l1.8-0.3c0.6-0.1,1.2-0.5,1.5-1.1l0.8-1.6      C67.5,35.7,69.5,35.7,70.3,37.1z"/><path class="st14" d="M70.3,57l0.8,1.6c0.3,0.6,0.8,1,1.5,1.1l1.8,0.3c1.6,0.2,2.2,2.2,1.1,3.3l-1.3,1.3      c-0.5,0.4-0.7,1.1-0.6,1.7l0.3,1.8c0.3,1.6-1.4,2.8-2.8,2l-1.6-0.9c-0.6-0.3-1.2-0.3-1.8,0L66,70.1c-1.4,0.7-3.1-0.5-2.8-2      l0.3-1.8c0.1-0.6-0.1-1.3-0.6-1.7l-1.3-1.3c-1.1-1.1-0.5-3,1.1-3.3l1.8-0.3c0.6-0.1,1.2-0.5,1.5-1.1l0.8-1.6      C67.5,55.6,69.5,55.6,70.3,57z"/></g><g><path class="st15" d="M23.2,17.2l0.8,1.6c0.3,0.6,0.8,1,1.5,1.1l1.8,0.3c1.6,0.2,2.2,2.2,1.1,3.3L27,24.7      c-0.5,0.4-0.7,1.1-0.6,1.7l0.3,1.8c0.3,1.6-1.4,2.8-2.8,2l-1.6-0.9c-0.6-0.3-1.2-0.3-1.8,0l-1.6,0.9c-1.4,0.7-3.1-0.5-2.8-2      l0.3-1.8c0.1-0.6-0.1-1.3-0.6-1.7l-1.3-1.3c-1.1-1.1-0.5-3,1.1-3.3l1.8-0.3c0.6-0.1,1.2-0.5,1.5-1.1l0.8-1.6      C20.5,15.7,22.5,15.7,23.2,17.2z"/><path class="st16" d="M23.2,37.1l0.8,1.6c0.3,0.6,0.8,1,1.5,1.1l1.8,0.3c1.6,0.2,2.2,2.2,1.1,3.3L27,44.6      c-0.5,0.4-0.7,1.1-0.6,1.7l0.3,1.8c0.3,1.6-1.4,2.8-2.8,2l-1.6-0.9c-0.6-0.3-1.2-0.3-1.8,0l-1.6,0.9c-1.4,0.7-3.1-0.5-2.8-2      l0.3-1.8c0.1-0.6-0.1-1.3-0.6-1.7l-1.3-1.3c-1.1-1.1-0.5-3,1.1-3.3l1.8-0.3c0.6-0.1,1.2-0.5,1.5-1.1l0.8-1.6      C20.5,35.7,22.5,35.7,23.2,37.1z"/><path class="st17" d="M23.2,57l0.8,1.6c0.3,0.6,0.8,1,1.5,1.1l1.8,0.3c1.6,0.2,2.2,2.2,1.1,3.3L27,64.6      c-0.5,0.4-0.7,1.1-0.6,1.7l0.3,1.8c0.3,1.6-1.4,2.8-2.8,2l-1.6-0.9c-0.6-0.3-1.2-0.3-1.8,0l-1.6,0.9c-1.4,0.7-3.1-0.5-2.8-2      l0.3-1.8c0.1-0.6-0.1-1.3-0.6-1.7l-1.3-1.3c-1.1-1.1-0.5-3,1.1-3.3l1.8-0.3c0.6-0.1,1.2-0.5,1.5-1.1l0.8-1.6      C20.5,55.6,22.5,55.6,23.2,57z"/></g></g></g></g></svg>