<?xml version="1.0" encoding="UTF-8"?>
<svg version="1.1" xmlns="http://www.w3.org/2000/svg" width="1845" height="861">
<path d="M0 0 C2.35919352 -0.00243387 4.718386 -0.00615893 7.07757568 -0.01106262 C13.42374755 -0.0203865 19.76976292 -0.0111223 26.11592245 0.00226951 C32.09909126 0.01250202 38.08225127 0.00996458 44.06542553 0.00806699 C55.90659893 0.00489228 67.74771174 0.01646378 79.58886719 0.03613281 C91.06544838 0.05519103 102.5419588 0.06220278 114.01855469 0.05664062 C126.55421361 0.05058308 139.08984159 0.05075483 151.62549794 0.06212646 C158.24906427 0.06811238 164.87261193 0.07179724 171.49618149 0.06915855 C177.70975909 0.06727801 183.9232458 0.07536152 190.13680267 0.09121895 C192.4180959 0.09546702 194.69939833 0.09630885 196.98069382 0.09352875 C200.08935154 0.09031437 203.19773631 0.09936964 206.30636597 0.11161804 C207.21266908 0.10783872 208.11897218 0.10405939 209.05273902 0.10016555 C214.78367782 0.14023007 218.87076418 0.46117342 223.20361328 4.55981445 C226.73087569 10.43858513 224.45933108 17.41106939 223.08813477 23.75805664 C222.89345045 24.68664238 222.69876614 25.61522812 222.4981823 26.57195282 C221.84286457 29.68914693 221.17748072 32.80410619 220.51220703 35.91918945 C220.03568669 38.17619888 219.55980845 40.43334396 219.08451843 42.69061279 C217.78093145 48.87286733 216.46864778 55.05324698 215.15470123 61.23330688 C213.76725999 67.76502 212.38680171 74.29820942 211.00585938 80.83129883 C210.43030425 83.5537252 209.85467165 86.27613518 209.2789917 88.99853516 C209.13411426 89.68368195 208.98923682 90.36882874 208.83996916 91.07473755 C207.78705662 96.05334047 206.73254111 101.03160253 205.67755127 106.00976562 C201.43799456 126.01870263 197.23133132 146.03438312 193.04146725 166.05378175 C191.79782738 171.995577 190.55277421 177.93707459 189.3066864 183.87835693 C189.13178419 184.71228305 188.95688197 185.54620916 188.77667969 186.40540576 C187.89848988 190.59228462 187.02011242 194.77912406 186.14161587 198.96593857 C184.40511001 207.24289787 182.67104315 215.52035487 180.94235229 223.7989502 C179.46031493 230.89615615 177.97318972 237.99227311 176.47968882 245.08707595 C175.71205644 248.73451621 174.94688247 252.38242843 174.18814659 256.03173065 C173.36023726 260.0134871 172.52098469 263.99276822 171.68066406 267.97192383 C171.44079993 269.13461666 171.2009358 270.29730949 170.95380306 271.49523544 C169.17412811 279.85196744 167.63991286 286.61114408 160.89111328 292.37231445 C157.87206812 294.18701715 155.65661887 294.62434344 152.15099716 294.63402748 C151.19554937 294.64149297 150.24010158 294.64895847 149.25570083 294.65665019 C148.20901426 294.65471545 147.16232769 294.65278072 146.08392334 294.65078735 C144.9697794 294.65657976 143.85563546 294.66237216 142.70772958 294.66834009 C138.96121127 294.68539328 135.21481575 294.6882212 131.46826172 294.69116211 C128.78789564 294.70045662 126.1075433 294.71053705 123.42718506 294.72160339 C117.6497627 294.74388528 111.87235808 294.75889296 106.09490204 294.76897049 C97.74166091 294.78355141 89.38848157 294.80908657 81.03527668 294.83730178 C67.4830068 294.88278044 53.93072803 294.9193908 40.37841797 294.95043945 C27.2130375 294.98062059 14.04767879 295.01496886 0.88232422 295.05493164 C0.07091232 295.05739319 -0.74049959 295.05985474 -1.57649973 295.06239088 C-5.64708478 295.0747654 -9.71766958 295.08722195 -13.78825426 295.09971929 C-47.56176885 295.20330318 -81.33530763 295.29250112 -115.10888672 295.37231445 C-115.27288436 296.15383818 -115.436882 296.9353619 -115.60584927 297.74056816 C-119.59203418 316.73561484 -123.5812687 335.73001868 -127.57392025 354.7237072 C-129.50464257 363.90883256 -131.43432294 373.09417454 -133.36157227 382.2800293 C-135.0408923 390.28416485 -136.72214511 398.28789153 -138.40574366 406.29112828 C-139.29755236 410.53081217 -140.18837592 414.77069778 -141.07688713 419.01107407 C-141.91251475 422.99891405 -142.75071756 426.98620385 -143.59093285 430.97307968 C-143.89948514 432.43946216 -144.20708109 433.90604624 -144.51366806 435.37284088 C-144.93115887 437.36952786 -145.35236783 439.36543635 -145.77378845 441.36129761 C-146.00884566 442.48035429 -146.24390287 443.59941097 -146.48608303 444.75237846 C-147.10888672 447.37231445 -147.10888672 447.37231445 -148.10888672 449.37231445 C-55.04888672 449.37231445 38.01111328 449.37231445 133.89111328 449.37231445 C129.39678222 453.86664552 129.39678222 453.86664552 126.26611328 455.7121582 C125.5703418 456.12828369 124.87457031 456.54440918 124.15771484 456.97314453 C123.40973633 457.41424561 122.66175781 457.85534668 121.89111328 458.30981445 C115.22314301 462.31208925 108.64707449 466.42420485 102.14111328 470.68481445 C92.37082447 477.07534792 82.53100648 483.35150306 72.67333984 489.60620117 C68.07663922 492.5241138 63.48405677 495.44849293 58.89111328 498.37231445 C53.42699036 501.85001161 47.96253523 505.32718202 42.49658203 508.80200195 C32.78502859 514.97697813 23.08246698 521.16567656 13.39111328 527.37231445 C1.01113582 535.30082884 -11.39064571 543.19471846 -23.79736328 551.08129883 C-34.41143545 557.82906345 -45.01737206 564.58918608 -55.60888672 571.37231445 C-67.98886418 579.30082884 -80.39064571 587.19471846 -92.79736328 595.08129883 C-104.4631334 602.49766736 -116.12435258 609.92098152 -127.75439453 617.39331055 C-132.91391217 620.70508699 -138.08697606 623.98952233 -143.30029297 627.21606445 C-144.28900391 627.83223633 -145.27771484 628.4484082 -146.29638672 629.08325195 C-148.14371929 630.23281488 -149.99620101 631.37416653 -151.85498047 632.50512695 C-160.13458686 637.67669649 -166.5333688 643.83938905 -171.79638672 652.05981445 C-172.50150391 653.13618164 -173.20662109 654.21254883 -173.93310547 655.3215332 C-179.51235059 665.04095519 -182.16399907 675.82772081 -184.39404297 686.70825195 C-184.69004796 688.11217071 -184.98701663 689.51588655 -185.28485107 690.91941833 C-185.92389379 693.94105568 -186.55612267 696.96400823 -187.18301392 699.9881897 C-188.18748468 704.83309608 -189.20829105 709.67448026 -190.23071289 714.515625 C-193.66341488 730.79171086 -197.04809387 747.07785409 -200.43995762 763.36248779 C-202.25806509 772.08954551 -204.08149795 780.81548377 -205.90742397 789.54090881 C-207.24646991 795.94321977 -208.5767665 802.34727148 -209.90046501 808.75277233 C-210.73210017 812.76917497 -211.57056742 816.78413003 -212.41074371 820.79875374 C-212.80176256 822.67449329 -213.18987278 824.55084184 -213.57488251 826.42782402 C-214.10433425 829.00710132 -214.64406674 831.5840243 -215.1862793 834.16064453 C-215.33740708 834.90972769 -215.48853487 835.65881084 -215.64424229 836.43059349 C-217.17148217 843.58378102 -219.57634198 848.53133781 -225.10888672 853.37231445 C-227.99325552 854.33377072 -229.80883907 854.50102026 -232.80569267 854.50932884 C-233.77696629 854.51440338 -234.74823992 854.51947793 -235.74894607 854.52470624 C-236.81848057 854.525204 -237.88801508 854.52570176 -238.98995972 854.5262146 C-240.12422272 854.53059685 -241.25848572 854.53497911 -242.42712033 854.53949416 C-246.24796467 854.55290531 -250.06878594 854.55906617 -253.88964844 854.56518555 C-256.62086263 854.57255706 -259.35207197 854.58134808 -262.08328247 854.58996582 C-270.29272184 854.61448486 -278.50216725 854.62911452 -286.71163195 854.64202589 C-289.02963007 854.64573763 -291.34762758 854.64971086 -293.6656251 854.65377855 C-308.05584969 854.67901055 -322.44607523 854.70106655 -336.83631706 854.7135067 C-340.16919839 854.71643645 -343.50207969 854.71939811 -346.83496094 854.72241211 C-348.07753521 854.72353119 -348.07753521 854.72353119 -349.345212 854.72467287 C-362.77268357 854.73733393 -376.20002295 854.77056775 -389.62743269 854.81221394 C-403.40805393 854.854606 -417.18860742 854.8781984 -430.96929371 854.88342726 C-438.70877465 854.88684406 -446.44804884 854.898631 -454.18746567 854.93153 C-460.77674904 854.95949402 -467.36578327 854.97054593 -473.95512138 854.95933454 C-477.31802071 854.95413856 -480.67997424 854.95980452 -484.04286957 854.98180008 C-487.68696908 855.00434276 -491.32974214 854.99626437 -494.97384644 854.98031616 C-496.0389195 854.99419825 -497.10399256 855.00808034 -498.20134056 855.02238309 C-502.90589933 854.97144928 -505.34749124 854.90509758 -509.27826595 852.15455532 C-511.26750883 849.13123508 -511.70634796 847.81433397 -511.53385925 844.24845886 C-511.4877268 843.28314428 -511.44159435 842.3178297 -511.39406395 841.32326317 C-510.93867281 836.61097985 -510.20064935 832.00220361 -509.30932617 827.35400391 C-509.01680733 825.76368961 -509.01680733 825.76368961 -508.71837902 824.14124775 C-508.06228133 820.58756815 -507.3921634 817.03667922 -506.72216797 813.4855957 C-506.2407838 810.89382437 -505.76020782 808.30191511 -505.28063965 805.70980835 C-504.23192966 800.05001262 -503.17608663 794.3915845 -502.1156311 788.73397827 C-500.53089365 780.27855592 -498.95791606 771.82097586 -497.3878063 763.36282647 C-495.35656832 752.42094838 -493.32306437 741.47949464 -491.28413391 730.53904724 C-486.24612211 703.50561943 -481.23342284 676.46757099 -476.23388672 649.42700195 C-476.04500374 648.40541426 -475.85612075 647.38382656 -475.66151404 646.33128166 C-474.11759618 637.98073746 -472.57373268 629.6301832 -471.03008687 621.2795887 C-468.28659265 606.43827327 -465.54007288 591.59752109 -462.79097736 576.7572422 C-455.39211249 536.81525959 -448.00617505 496.87107494 -440.68997282 456.91385692 C-439.4115685 449.93224183 -438.13169277 442.9508979 -436.8507843 435.96974182 C-436.67360361 435.00402199 -436.49642292 434.03830216 -436.31387311 433.04331809 C-435.60808369 429.19653422 -434.90226458 425.34975581 -434.1962682 421.50300992 C-432.16727461 410.4472587 -430.14374561 399.39054329 -428.12996393 388.33201075 C-426.88771687 381.51274142 -425.63903135 374.69467103 -424.38535684 367.87749338 C-423.66972674 363.98470356 -422.95704794 360.09143723 -422.25269127 356.19659042 C-415.01359399 316.19247161 -415.01359399 316.19247161 -407.98388672 303.68481445 C-407.60482178 302.99186279 -407.22575684 302.29891113 -406.83520508 301.58496094 C-391.31254551 274.12904092 -365.85995644 256.1396673 -336.2043457 246.90966797 C-331.1761066 245.6202407 -326.34431045 245.24528699 -321.16369629 245.23428345 C-320.489017 245.23146217 -319.8143377 245.22864089 -319.11921358 245.22573411 C-316.87161881 245.21743977 -314.62407363 245.21605435 -312.37646484 245.21459961 C-310.75971845 245.20992773 -309.14297337 245.20478355 -307.52622986 245.19920349 C-304.0510114 245.18794943 -300.57580138 245.17950246 -297.10057068 245.17308426 C-291.60400216 245.16238078 -286.10749467 245.14213118 -280.61096191 245.1199646 C-264.98318263 245.05811432 -249.3554078 245.00399861 -233.72753906 244.97094727 C-225.09157751 244.95260325 -216.45571905 244.92367466 -207.81983328 244.88294256 C-203.25226353 244.86187791 -198.68482364 244.84641596 -194.11720276 244.84413528 C-189.82268762 244.84198822 -185.52844333 244.826113 -181.2340107 244.79974556 C-179.65946 244.79255476 -178.08487648 244.79045054 -176.51031303 244.79384804 C-174.3579147 244.79775012 -172.20637835 244.78326602 -170.05407715 244.76431274 C-168.85063408 244.7610026 -167.64719101 244.75769245 -166.40727997 244.754282 C-161.65572692 244.20403255 -158.35767207 242.54167164 -154.88259888 239.28762817 C-152.43328541 235.26188074 -151.64927318 231.31542399 -150.72949219 226.72729492 C-150.42045897 225.27324942 -150.42045897 225.27324942 -150.10518265 223.78982925 C-149.42378474 220.56736837 -148.76250008 217.34111632 -148.10107422 214.11450195 C-147.62143477 211.82728344 -147.14052378 209.54033125 -146.65841675 207.25363159 C-145.38339607 201.18927072 -144.12526065 195.12152875 -142.87101746 189.05284119 C-141.63657489 183.0913983 -140.38847895 177.13282199 -139.14111328 171.17407227 C-137.16183444 161.7094013 -135.18486782 152.2442505 -133.21044922 142.77856445 C-132.96585087 141.60658131 -132.72125252 140.43459816 -132.4692421 139.22710037 C-131.21049034 133.19290604 -129.95600116 127.15786799 -128.70849609 121.12133789 C-127.46686591 115.1147831 -126.21454691 109.11054332 -124.95513535 103.10769272 C-124.48642141 100.86405959 -124.02153189 98.61962346 -123.56082535 96.37433243 C-117.24414668 65.61216676 -104.13305933 39.30145247 -78.04638672 20.43481445 C-76.41700148 19.38792773 -74.76982983 18.36837471 -73.10888672 17.37231445 C-72.06603516 16.72004883 -71.02318359 16.0677832 -69.94873047 15.39575195 C-47.86501667 1.90753352 -25.44055656 -0.09303458 0 0 Z " fill="#000000" transform="translate(511.10888671875,-0.372314453125)"/>
<path d="M0 0 C-3.18326022 3.8853817 -6.16513354 7.17415807 -10.125 10.3125 C-11.08921875 11.08464844 -12.0534375 11.85679688 -13.046875 12.65234375 C-14.02140625 13.42707031 -14.9959375 14.20179687 -16 15 C-21.90925215 19.79059315 -27.76769962 24.63446497 -33.5625 29.5625 C-38.11155415 33.43112303 -42.72506608 37.19777962 -47.40625 40.90625 C-50.48079349 43.38811041 -53.49179044 45.93848513 -56.5 48.5 C-61.06925314 52.39075616 -65.70172572 56.17928921 -70.40625 59.90625 C-73.48079349 62.38811041 -76.49179044 64.93848513 -79.5 67.5 C-84.06925314 71.39075616 -88.70172572 75.17928921 -93.40625 78.90625 C-96.48079349 81.38811041 -99.49179044 83.93848513 -102.5 86.5 C-107.06925314 90.39075616 -111.70172572 94.17928921 -116.40625 97.90625 C-119.48079349 100.38811041 -122.49179044 102.93848513 -125.5 105.5 C-130.06925314 109.39075616 -134.70172572 113.17928921 -139.40625 116.90625 C-142.48079728 119.38811347 -145.49170092 121.93858593 -148.5 124.5 C-152.99002543 128.32092614 -157.53350963 132.0537239 -162.15234375 135.71875 C-171.74255328 143.40144186 -181.1812645 151.27326897 -190.53833008 159.23754883 C-194.4317456 162.54281661 -198.40347641 165.73522157 -202.40625 168.90625 C-205.48079349 171.38811041 -208.49179044 173.93848513 -211.5 176.5 C-216.06925314 180.39075616 -220.70172572 184.17928921 -225.40625 187.90625 C-228.48079349 190.38811041 -231.49179044 192.93848513 -234.5 195.5 C-239.06925314 199.39075616 -243.70172572 203.17928921 -248.40625 206.90625 C-251.48079349 209.38811041 -254.49179044 211.93848513 -257.5 214.5 C-262.06925314 218.39075616 -266.70172572 222.17928921 -271.40625 225.90625 C-274.48079349 228.38811041 -277.49179044 230.93848513 -280.5 233.5 C-285.06925314 237.39075616 -289.70172572 241.17928921 -294.40625 244.90625 C-297.48079521 247.3881118 -300.49174871 249.93853167 -303.5 252.5 C-308.91530565 257.10983449 -314.42062296 261.58954174 -320 266 C-320.8765625 266.73347656 -321.753125 267.46695312 -322.65625 268.22265625 C-325 270 -325 270 -327 270 C-323.47056883 252.14610512 -319.79813144 234.32399292 -316.05927777 216.51293492 C-315.453566 213.62654739 -314.8487142 210.73997989 -314.24384457 207.85341579 C-312.12353069 197.73505729 -309.99968574 187.61744125 -307.875 177.5 C-307.70836082 176.70643427 -307.54172164 175.91286855 -307.37003279 175.09525537 C-303.17756196 155.13011084 -298.98046768 135.16594141 -294.77847004 115.2027998 C-293.03413429 106.91554053 -291.29112342 98.6280055 -289.5497818 90.3401165 C-287.04648277 78.42623161 -284.53506449 66.51410886 -282.01153564 54.60449219 C-281.21535524 50.84565012 -280.42298878 47.08603578 -279.63397217 43.32568359 C-278.72783513 39.00798008 -277.8140171 34.69198007 -276.89370918 30.37727547 C-276.56722072 28.84029729 -276.24348199 27.30273178 -275.9228344 25.76452446 C-275.49241806 23.70189778 -275.0518813 21.64169039 -274.60864258 19.58178711 C-274.24806511 17.87713539 -274.24806511 17.87713539 -273.88020325 16.13804626 C-272.22640114 10.24201311 -270.13105269 6.42070179 -265 3 C-260.34584943 0.57224183 -255.99143482 0.71000153 -250.86891174 0.7215271 C-249.48542845 0.7128385 -249.48542845 0.7128385 -248.07399601 0.70397437 C-244.9810173 0.6869611 -241.88818775 0.68409638 -238.79516602 0.68115234 C-236.57711929 0.67185319 -234.35907606 0.66168453 -232.14103699 0.65071106 C-226.1064608 0.6233466 -220.07190808 0.60823436 -214.03728604 0.59528303 C-207.69849071 0.57962523 -201.35974251 0.55282686 -195.02098083 0.5272522 C-184.34871697 0.48571228 -173.67645304 0.45116645 -163.00415039 0.421875 C-152.08778903 0.39189589 -141.17145564 0.35758744 -130.25512695 0.31738281 C-129.58639368 0.31492126 -128.91766041 0.31245972 -128.2286625 0.30992357 C-125.5384808 0.30000276 -122.84829922 0.29004886 -120.1581178 0.28005161 C-33.61990984 -0.04142417 -33.61990984 -0.04142417 0 0 Z " fill="#DB2244" transform="translate(435,0)"/>
<path d="M0 0 C0.91136719 0.41765625 1.82273437 0.8353125 2.76171875 1.265625 C19.479818 9.5650523 31.54019689 24.73424504 38 42 C41.5993548 52.75104815 43.18061436 63.38631347 43.25 74.6875 C43.2809375 75.87182617 43.2809375 75.87182617 43.3125 77.08007812 C43.42929908 96.19132768 38.42955277 115.3829225 34.43698239 133.93974519 C33.69275555 137.40638368 32.95675744 140.8747704 32.2197113 144.34294128 C30.81603507 150.94202815 29.40522203 157.53956719 27.99173254 164.13655823 C26.4292028 171.43084083 24.87476232 178.72683859 23.32102895 186.02299905 C21.33859244 195.33203146 19.3543166 204.6406577 17.35952759 213.947052 C17.20905853 214.6491129 17.05858948 215.35117379 16.90356076 216.07450926 C16.75348879 216.77470604 16.60341683 217.47490281 16.44879723 218.19631767 C16.14701712 219.60434849 15.84523705 221.01237932 15.54345703 222.42041016 C15.39494647 223.1132209 15.24643591 223.80603165 15.09342504 224.51983666 C13.05383316 234.03761344 11.03623221 243.5597788 9.03619826 253.08594239 C8.10215677 257.52940086 7.16205342 261.97158239 6.22282219 266.41394615 C5.72792183 268.76300895 5.23593438 271.11268785 4.74725533 273.46305275 C2.46912809 284.4163409 0.0889739 295.28374912 -3.10717773 306.01098633 C-3.45766851 307.18746624 -3.45766851 307.18746624 -3.81523991 308.38771343 C-14.52897247 342.99441583 -40.31949661 369.94770607 -71.78125 386.8671875 C-104.25256964 403.66217638 -145.30129109 408.3095417 -180.5390625 398.12890625 C-204.63105486 390.27045728 -222.47067469 376.63940243 -234 354 C-239.84514349 342.02458408 -241.51773578 329.20243256 -241.4375 316 C-241.45748047 314.86433594 -241.47746094 313.72867187 -241.49804688 312.55859375 C-241.4940961 305.36027426 -240.70996089 298.5834157 -239.38378906 291.52661133 C-239.20941913 290.5847614 -239.03504919 289.64291147 -238.85539532 288.67252064 C-236.357916 275.36012622 -233.58370141 262.10165186 -230.83293557 248.83980918 C-230.02941818 244.96367897 -229.22858203 241.08699456 -228.42729187 237.21040344 C-227.07849559 230.68715928 -225.72752246 224.16436885 -224.37524414 217.6418457 C-223.00657688 211.04013838 -221.6403376 204.43793483 -220.27661133 197.83520508 C-207.41011515 135.54340591 -207.41011515 135.54340591 -202.34500694 112.25541115 C-201.98368518 110.5940798 -201.62389976 108.9324133 -201.26590919 107.27036095 C-196.01903363 82.96937042 -187.88162365 59.52419788 -172 40 C-171.5757373 39.47180664 -171.15147461 38.94361328 -170.71435547 38.39941406 C-165.31041942 31.69968518 -159.86229042 25.25950633 -153 20 C-152.00742187 19.23300781 -151.01484375 18.46601563 -149.9921875 17.67578125 C-109.49976095 -12.81763979 -46.54932832 -22.13534494 0 0 Z M-144.5078125 54.7265625 C-157.1807621 69.63338797 -163.52210358 86.63101875 -167.75390625 105.4934082 C-168.0074588 106.60844632 -168.26101135 107.72348444 -168.52224731 108.87231159 C-171.76953159 123.25529473 -174.8202685 137.68130987 -177.87250519 152.10665679 C-178.5571911 155.34114909 -179.24338977 158.57531977 -179.92956352 161.8094967 C-181.55343683 169.4634582 -183.17498415 177.11790973 -184.79492188 184.77270508 C-186.44484596 192.56902699 -188.09843568 200.36456476 -189.75390434 208.15971106 C-191.19477473 214.94494823 -192.63344431 221.73064959 -194.07043648 228.51670915 C-194.9200501 232.52887923 -195.77035074 236.54089966 -196.6227417 240.5524807 C-198.77726534 250.69573247 -200.91178011 260.84287169 -203 271 C-203.14675045 271.71371655 -203.2935009 272.4274331 -203.44469833 273.16277742 C-204.31904344 277.42619587 -205.18074617 281.69190791 -206.02688217 285.9610163 C-206.41034694 287.88848459 -206.80146498 289.81442548 -207.19290161 291.74029064 C-211.11143812 311.76988518 -210.65875909 330.5655389 -199 348 C-187.5181429 362.64463911 -170.84152754 368.81026643 -152.90234375 371.45703125 C-150.26269673 371.73547503 -147.65203265 371.90394212 -145 372 C-144.25363281 372.03996094 -143.50726562 372.07992188 -142.73828125 372.12109375 C-122.85028359 372.69511066 -102.59733763 368.19968053 -85 359 C-84.05898437 358.53851562 -83.11796875 358.07703125 -82.1484375 357.6015625 C-59.52916155 346.06891758 -42.94112658 324.68048798 -35.00292969 300.82164001 C-31.68191159 290.23798751 -29.61460207 279.30107898 -27.3180809 268.46118164 C-26.55645053 264.87515641 -25.7852916 261.29118103 -25.01489258 257.70703125 C-23.95556382 252.77610514 -22.89730643 247.84495629 -21.84266663 242.9130249 C-18.7412121 228.41468814 -15.6031067 213.92438464 -12.45715165 199.43565285 C-11.38590708 194.50196816 -10.31546132 189.56811077 -9.24560547 184.63412476 C-9.01732374 183.58132987 -9.01732374 183.58132987 -8.78443027 182.5072664 C-8.01269436 178.94799716 -7.2410573 175.3887065 -6.46947098 171.82940483 C-6.16009303 170.40232095 -5.85070964 168.97523825 -5.5413208 167.54815674 C-5.38831111 166.84238515 -5.23530142 166.13661355 -5.07765508 165.40945494 C-3.99817282 160.43097489 -2.91715194 155.45283029 -1.83563232 150.47479248 C-0.4980429 144.31775804 0.8365839 138.16008917 2.16781908 132.00167763 C2.85822377 128.80820006 3.5503358 125.61510946 4.24504662 122.42256546 C5.01115141 118.90097455 5.77236643 115.37835897 6.5324707 111.85546875 C6.75421526 110.84162802 6.97595982 109.82778728 7.2044239 108.78322411 C11.8683282 87.06142624 14.37189283 65.76254215 2 46 C-9.81575474 29.9232031 -27.45364504 23.65050476 -46.51171875 20.59765625 C-83.29012979 16.0393812 -119.28767956 27.30654258 -144.5078125 54.7265625 Z " fill="#000000" transform="translate(1175,458)"/>
<path d="M0 0 C18.72515158 -0.04691351 37.45029108 -0.08208301 56.17548943 -0.10362434 C64.8717331 -0.11389633 73.56794006 -0.12787775 82.26416016 -0.15087891 C89.85197226 -0.17093864 97.43975775 -0.18374599 105.02759564 -0.18817699 C109.03784874 -0.19076328 113.04802576 -0.19675493 117.05825424 -0.21146011 C170.80302776 -0.40089517 170.80302776 -0.40089517 192 11 C192.83789062 11.42925781 193.67578125 11.85851562 194.5390625 12.30078125 C205.00036916 18.04964172 212.60200948 26.42538766 218 37 C218.56654297 38.09248047 218.56654297 38.09248047 219.14453125 39.20703125 C234.8140654 71.77853483 224.53218742 114.98817139 216 148 C215.65630371 149.3310376 215.65630371 149.3310376 215.30566406 150.68896484 C208.64586793 175.84443571 198.37003777 200.37122105 181 220 C180.37867188 220.76441406 179.75734375 221.52882813 179.1171875 222.31640625 C160.32313342 244.92431649 130.80009268 255.29726988 102.44149113 258.78329563 C97.60058636 259.21296961 92.74881351 259.12922599 87.89257812 259.11352539 C86.7014743 259.11367142 85.51037048 259.11381744 84.28317261 259.1139679 C81.03993059 259.11339342 77.79673254 259.10840178 74.55349922 259.10139394 C71.15558185 259.09511363 67.75766349 259.09455292 64.35974121 259.09336853 C57.93554294 259.09026895 51.51136182 259.08207417 45.08717108 259.07201904 C37.76911025 259.06081513 30.45104858 259.0553367 23.1329813 259.05032361 C8.08864467 259.03989033 -6.95567595 259.02231763 -22 259 C-22.11186646 260.22445831 -22.22373291 261.44891663 -22.33898926 262.71047974 C-23.01653564 268.77011588 -24.29577461 274.67582949 -25.57617188 280.63232422 C-25.83805801 281.86752304 -26.09994415 283.10272186 -26.36976624 284.37535095 C-27.08272232 287.73733713 -27.80107373 291.098149 -28.52054787 294.45874548 C-29.27441685 297.9840872 -30.02356185 301.51043281 -30.77331543 305.03665161 C-32.03131392 310.94987031 -33.29262047 316.86237539 -34.55615234 322.77441406 C-36.01682376 329.60895892 -37.47324905 336.44439729 -38.92720175 343.28037441 C-40.47741534 350.56887197 -42.03027302 357.8568041 -43.5841465 365.14452219 C-44.0312706 367.24228414 -44.47794777 369.34014087 -44.92454529 371.43801498 C-45.75550575 375.34048109 -46.58948083 379.24229949 -47.42382812 383.14404297 C-47.67113174 384.30666153 -47.91843536 385.46928009 -48.17323303 386.66712952 C-48.4003447 387.72684464 -48.62745636 388.78655975 -48.8614502 389.87838745 C-49.05833687 390.80047438 -49.25522354 391.7225613 -49.45807648 392.67259026 C-50 395 -50 395 -51 398 C-62.22 398 -73.44 398 -85 398 C-74.7433342 348.81196132 -64.31554626 299.66150967 -53.79721451 250.5288353 C-51.6819789 240.64824511 -49.56709555 230.76757968 -47.453125 220.88671875 C-47.30135795 220.17736797 -47.14959091 219.46801719 -46.99322486 218.73717093 C-42.09371836 195.83585525 -37.21753603 172.92965246 -32.359375 150.01953125 C-32.20261803 149.28032936 -32.04586106 148.54112747 -31.88435388 147.77952552 C-28.84316213 133.43808383 -25.80429319 119.09615066 -22.76847965 104.75356954 C-17.37184942 79.25756425 -11.96953913 53.76285096 -6.48755074 28.28503418 C-6.00282062 26.03197253 -5.51860269 23.77880061 -5.03492546 21.5255127 C-4.374752 18.45151812 -3.71230637 15.37802297 -3.04907227 12.3046875 C-2.85474924 11.39852692 -2.66042622 10.49236633 -2.46021461 9.55874634 C-2.28127851 8.73224579 -2.10234241 7.90574524 -1.91798401 7.05419922 C-1.76381295 6.33884003 -1.6096419 5.62348083 -1.45079899 4.88644409 C-1 3 -1 3 0 0 Z M26 31 C25.88590538 31.53900594 25.77181076 32.07801188 25.65425873 32.63335133 C22.79661415 46.13323252 19.93833158 59.63297854 17.0793829 73.13258362 C16.79493629 74.47570796 16.5104899 75.81883235 16.2260437 77.16195679 C16.08409901 77.8322028 15.94215432 78.50244882 15.79590827 79.19300532 C14.79192676 83.93378086 13.78815495 88.67460077 12.78445435 93.41543579 C7.13665251 120.09139035 1.48841089 146.76718829 -4.22265625 173.4296875 C-4.60701929 175.22513016 -4.99136815 177.02057585 -5.3757019 178.81602478 C-6.94324345 186.13719276 -8.51242407 193.45799288 -10.08899784 200.77722168 C-10.71114572 203.66815619 -11.33094277 206.55959103 -11.95013237 209.45116043 C-12.36422079 211.38078547 -12.78154604 213.30971502 -13.19898987 215.23861694 C-13.43955612 216.3634549 -13.68012238 217.48829285 -13.92797852 218.6472168 C-14.24122826 220.1019062 -14.24122826 220.1019062 -14.56080627 221.58598328 C-15.08949827 224.08298422 -15.08949827 224.08298422 -15 227 C0.07437625 227.07046994 15.14874486 227.12317241 30.22324944 227.15543652 C37.22457298 227.17082379 44.22579346 227.19175488 51.22705078 227.22631836 C57.99628791 227.25972012 64.76541839 227.27690369 71.53473282 227.28463173 C74.10441894 227.29013206 76.67409989 227.30087148 79.24374008 227.31719017 C107.67613043 227.49040664 132.71369592 225.21026971 154.37109375 204.78515625 C183.84419476 173.56031075 193.18964954 121.13429857 192.13183594 79.82080078 C191.46736487 65.60358087 186.30623863 52.96365893 175.828125 43.19140625 C161.59801548 32.16503686 143.0131987 30.82426319 125.67529297 30.88647461 C124.59118637 30.88632858 123.50707977 30.88618256 122.39012146 30.8860321 C118.8407891 30.88672346 115.29151058 30.89447921 111.7421875 30.90234375 C109.26783273 30.90421069 106.79347759 30.90563329 104.31912231 30.90663147 C97.83206141 30.91043489 91.34502318 30.92024647 84.85797119 30.93133545 C78.22823372 30.94159647 71.59849335 30.94613911 64.96875 30.95117188 C51.97915704 30.96187081 38.98957973 30.97872652 26 31 Z " fill="#000000" transform="translate(1284,456)"/>
<path d="M0 0 C1.29349365 0.00523682 2.5869873 0.01047363 3.91967773 0.01586914 C5.80408569 0.01961548 5.80408569 0.01961548 7.7265625 0.0234375 C9.35213257 0.03256097 10.97770215 0.04177107 12.60327148 0.05102539 C15.2777854 0.06238508 17.95229883 0.0734244 20.6268158 0.08399963 C21.34110984 0.08685612 22.05540389 0.08971261 22.79134321 0.09265566 C24.54115249 0.09964809 26.29096197 0.10659168 28.04077148 0.11352539 C30.92993797 21.86353637 33.52570592 43.6373085 35.97129655 65.44123077 C36.46973519 69.8799831 36.97113488 74.31840121 37.47212219 78.75686646 C38.44689318 87.3968539 39.41902555 96.03713614 40.39017811 104.67753097 C41.52282539 114.75393776 42.65807031 124.8300514 43.79337063 134.90615955 C45.81754903 152.87218137 47.83926308 170.83847962 49.85961914 188.80493164 C51.8188367 206.22768843 53.78007398 223.6502164 55.7434082 241.07250977 C57.88795431 260.10287348 60.03146527 279.13335321 62.17310166 298.16404462 C62.40108868 300.18994222 62.62907589 302.21583981 62.85706329 304.24173737 C62.96921186 305.23830675 63.08136043 306.23487613 63.19690745 307.26164459 C63.9873795 314.28534019 64.77856415 321.30895532 65.56999969 328.33254242 C66.53192813 336.86945674 67.49263794 345.40650717 68.45178571 353.94373438 C68.94109258 358.29873914 69.43093536 362.65368185 69.9222126 367.00846481 C70.37129044 370.98933462 70.81884037 374.97037305 71.2651408 378.95155516 C71.42729131 380.39555619 71.59001043 381.83949349 71.75333878 383.28336176 C71.97430151 385.23748584 72.19303131 387.19186202 72.41163254 389.14625168 C72.53401252 390.23405387 72.65639249 391.32185606 72.78248096 392.44262195 C73.04077148 395.11352539 73.04077148 395.11352539 73.04077148 398.11352539 C61.49077148 398.11352539 49.94077148 398.11352539 38.04077148 398.11352539 C35.03013414 373.44814506 32.02744626 348.78181927 29.04077148 324.11352539 C28.94606567 323.33139931 28.85135986 322.54927322 28.75378418 321.74344635 C27.64197749 312.55963631 26.53503664 303.37526355 25.43655396 294.18984985 C25.13201856 291.64720137 24.8262607 289.104699 24.51925659 286.56234741 C24.09463332 283.04334642 23.67449892 279.52383855 23.25561523 276.00415039 C23.13105957 274.97939102 23.00650391 273.95463165 22.87817383 272.89881897 C22.71103882 271.48191017 22.71103882 271.48191017 22.54052734 270.03637695 C22.44331894 269.22477112 22.34611053 268.41316528 22.24595642 267.57696533 C22.01171943 264.76472791 22.04077148 261.93550099 22.04077148 259.11352539 C-20.19922852 259.44352539 -62.43922852 259.77352539 -105.95922852 260.11352539 C-110.24922852 268.36352539 -114.53922852 276.61352539 -118.95922852 285.11352539 C-125.02172852 296.23852539 -125.02172852 296.23852539 -127.99438477 301.65258789 C-131.0600813 307.26646147 -134.0162986 312.93456419 -136.95922852 318.61352539 C-141.21244715 326.81738653 -145.57376701 334.95143973 -150.02636719 343.04858398 C-153.22456363 348.88419723 -156.3651602 354.74791311 -159.47094727 360.63305664 C-159.86608521 361.38160416 -160.26122314 362.13015167 -160.66833496 362.90138245 C-163.00572671 367.33213983 -165.33724021 371.76592614 -167.66200256 376.20332336 C-168.38904055 377.57678349 -169.12546793 378.94531774 -169.87156677 380.30851746 C-171.58460024 383.43927031 -173.09581162 386.4543133 -174.42773438 389.77758789 C-175.96161399 393.27358631 -177.12112154 395.54847584 -179.95922852 398.11352539 C-186.00832178 399.57840443 -191.72845023 399.25352688 -197.89672852 398.86352539 C-199.55083217 398.80327605 -201.20514611 398.74853278 -202.85961914 398.69946289 C-206.89804176 398.56772887 -210.92631854 398.36111845 -214.95922852 398.11352539 C-213.55809604 393.48312037 -211.63877456 389.31976543 -209.35375977 385.07446289 C-208.99793823 384.40457336 -208.6421167 383.73468384 -208.2755127 383.04449463 C-207.1120229 380.85677418 -205.94196715 378.67264211 -204.77172852 376.48852539 C-203.9545386 374.95536026 -203.13773006 373.42199181 -202.32128906 371.88842773 C-200.25947266 368.01857567 -198.19206543 364.15174603 -196.12231445 360.28613281 C-195.04234027 358.26877549 -193.9634029 356.25086885 -192.88500977 354.23266602 C-188.58606732 346.18776632 -184.27410749 338.14988608 -179.95922852 330.11352539 C-172.09644232 315.46234492 -164.25388127 300.80104304 -156.45922852 286.11352539 C-148.05845707 270.28389415 -139.59828615 254.48663599 -131.12524414 238.69555664 C-129.27772226 235.25182298 -127.43077266 231.80778341 -125.58422852 228.36352539 C-124.97264893 227.22286621 -124.36106934 226.08220703 -123.73095703 224.90698242 C-120.3607222 218.61535142 -117.00217368 212.31772412 -113.65844727 206.01196289 C-113.11603645 204.98908424 -113.11603645 204.98908424 -112.56266785 203.94554138 C-111.101547 201.18988148 -109.64049342 198.43418593 -108.17965698 195.67837524 C-103.2541831 186.39001785 -98.26481283 177.14038565 -93.20458984 167.92456055 C-89.17791919 160.56850219 -85.30465215 153.13724751 -81.44482422 145.69262695 C-78.14959641 139.35273874 -74.77523852 133.06285311 -71.33422852 126.80102539 C-66.17769797 117.41250029 -61.14890628 107.95982433 -56.14672852 98.48852539 C-48.74547315 84.47689841 -41.2909558 70.49551143 -33.79467773 56.53442383 C-31.91072172 53.02311873 -30.03005668 49.51007094 -28.15063477 45.99633789 C-21.98091295 34.46263162 -15.79949409 22.93526333 -9.58422852 11.42602539 C-9.03041504 10.39767578 -8.47660156 9.36932617 -7.90600586 8.30981445 C-7.40020996 7.37492188 -6.89441406 6.4400293 -6.37329102 5.47680664 C-5.92937012 4.6547876 -5.48544922 3.83276855 -5.02807617 2.98583984 C-3.39796732 0.1303568 -3.39796732 0.1303568 0 0 Z M0.04077148 53.11352539 C-6.81678044 66.11556521 -13.63320811 79.13861513 -20.42700195 92.17407227 C-23.43426633 97.94326652 -26.44458365 103.71086828 -29.4543457 109.47875977 C-31.98043685 114.32002252 -34.50575478 119.16168562 -37.02954102 124.00415039 C-41.61441004 132.79949403 -46.20536274 141.59124637 -50.83422852 150.36352539 C-54.91286829 158.09445469 -58.94035368 165.85138032 -62.95922852 173.61352539 C-67.02115808 181.45822908 -71.09116101 189.29812429 -75.20922852 197.11352539 C-75.59900879 197.85401123 -75.98878906 198.59449707 -76.39038086 199.35742188 C-78.5142161 203.3875698 -80.65026057 207.41095681 -82.79516602 211.42993164 C-83.26148438 212.30713867 -83.72780273 213.1843457 -84.20825195 214.08813477 C-85.10647565 215.77748381 -86.00802174 217.46507171 -86.91333008 219.15063477 C-87.31261719 219.90280273 -87.7119043 220.6549707 -88.12329102 221.42993164 C-88.47858887 222.09452393 -88.83388672 222.75911621 -89.19995117 223.44384766 C-90.09721297 225.11125644 -90.09721297 225.11125644 -89.95922852 227.11352539 C-53.65922852 227.11352539 -17.35922852 227.11352539 20.04077148 227.11352539 C19.29066139 216.28139454 19.29066139 216.28139454 18.28858948 205.48982239 C18.21972579 204.83885942 18.15086211 204.18789645 18.07991165 203.51720732 C17.85508268 201.39777198 17.626811 199.27872406 17.3984375 197.15966797 C17.23386186 195.61571213 17.0694796 194.07173566 16.90527344 192.52774048 C16.46355008 188.38153015 16.01855076 184.23567846 15.57244611 180.08993745 C15.29343424 177.49649829 15.01497917 174.9029999 14.73667717 172.30948448 C13.86447966 164.183296 12.99018432 156.0573372 12.11291367 147.93169481 C11.10210773 138.56890581 10.09845784 129.20538526 9.1008268 119.84118348 C8.32698564 112.58168457 7.54682607 105.32288214 6.76183838 98.06458014 C6.29388067 93.7363238 5.8286337 89.4078166 5.36999702 85.07856178 C4.93974221 81.01882445 4.50167939 76.9600064 4.05751801 72.90176773 C3.89581082 71.41171269 3.73694685 69.92134599 3.58110619 68.43066597 C3.36835279 66.3997656 3.14444782 64.37004259 2.91993713 62.34040833 C2.73660497 60.6351736 2.73660497 60.6351736 2.54956913 58.89548969 C2.19411938 55.91459329 2.19411938 55.91459329 0.04077148 53.11352539 Z " fill="#DB2244" transform="translate(1163.959228515625,5.886474609375)"/>
<path d="M0 0 C1.36209177 4.08627532 0.13571138 5.38184262 -1.74609375 9.19921875 C-2.18103905 10.09179131 -2.18103905 10.09179131 -2.62477112 11.00239563 C-3.55313442 12.90211372 -4.49507267 14.79472578 -5.4375 16.6875 C-6.06926502 17.97416509 -6.70013571 19.26126972 -7.33007812 20.54882812 C-8.87637342 23.70438509 -10.43491402 26.85371267 -12 30 C-16.14495043 28.65290905 -19.96397159 27.11253866 -23.875 25.1875 C-43.94503045 15.83669036 -65.26210511 12.76767419 -87.25 12.75 C-88.00466553 12.74932526 -88.75933105 12.74865051 -89.53686523 12.74795532 C-122.43361093 12.79455992 -153.80743605 19.77327241 -179 42 C-191.61459704 56.6447944 -196.37693242 73.86181897 -195.20703125 92.92285156 C-193.85746945 106.46303056 -185.20628826 118.49220949 -175 127 C-170.50133185 130.31292648 -165.83007611 133.20768392 -161 136 C-160.31615234 136.39880371 -159.63230469 136.79760742 -158.92773438 137.20849609 C-142.86273329 146.42736867 -125.65149638 153.18042672 -108.57876587 160.26179504 C-78.64704679 172.68638252 -45.42310955 187.28829913 -29 217 C-28.54109375 217.77472656 -28.0821875 218.54945313 -27.609375 219.34765625 C-15.56462204 241.07900271 -18.27716999 268.16419011 -24.6171875 291.24707031 C-29.41111355 307.66330783 -37.41737148 323.38564155 -49 336 C-49.81855469 336.9590625 -50.63710937 337.918125 -51.48046875 338.90625 C-79.45469661 371.3234126 -122.3472547 386.34825578 -164 390 C-169.37163506 390.32553402 -174.74572352 390.34142084 -180.125 390.3125 C-180.83722717 390.31067719 -181.54945435 390.30885437 -182.28326416 390.30697632 C-221.99342351 390.13708559 -259.21118777 379.03301737 -288.25 351.125 C-291.92489264 347.30335624 -295.36641334 343.31727009 -298.6875 339.1875 C-299.35797363 338.37853271 -299.35797363 338.37853271 -300.04199219 337.55322266 C-301.93468126 335.11272966 -302.98570876 333.50470625 -303.07421875 330.37890625 C-301.64861057 327.22183214 -299.87245705 325.8514544 -297.125 323.75 C-296.13886719 322.98300781 -295.15273437 322.21601563 -294.13671875 321.42578125 C-293.10160156 320.62527344 -292.06648438 319.82476562 -291 319 C-289.96068883 318.14434482 -288.92548145 317.28367955 -287.89453125 316.41796875 C-286.43080078 315.19013672 -286.43080078 315.19013672 -284.9375 313.9375 C-284.03902344 313.18339844 -283.14054687 312.42929687 -282.21484375 311.65234375 C-280 310 -280 310 -278 310 C-276.93882745 311.58572943 -275.9525663 313.22174792 -275 314.875 C-261.02905841 337.25145676 -234.57927437 347.82513339 -210 354 C-209.30455078 354.17934082 -208.60910156 354.35868164 -207.89257812 354.54345703 C-186.95135213 359.68682644 -160.8678707 359.14189508 -140 354 C-138.79029541 353.70198486 -138.79029541 353.70198486 -137.55615234 353.39794922 C-120.03429047 348.9090439 -104.40377136 341.97823261 -90 331 C-89.32710937 330.49984375 -88.65421875 329.9996875 -87.9609375 329.484375 C-73.94208416 318.34610797 -65.33431493 301.73408771 -60 285 C-59.65839844 283.94296875 -59.31679687 282.8859375 -58.96484375 281.796875 C-55.41590224 268.92164534 -54.62191859 253.04308539 -61 241 C-61.43570312 240.154375 -61.87140625 239.30875 -62.3203125 238.4375 C-67.59584719 228.98189684 -74.25141364 222.24799756 -83 216 C-83.64493408 215.53803223 -84.28986816 215.07606445 -84.9543457 214.60009766 C-97.41916851 205.99269047 -111.03921216 199.34725275 -124.75 193 C-126.25517665 192.2970042 -127.76013837 191.59354803 -129.26489258 190.88964844 C-137.03724339 187.26148979 -144.84047918 183.71396338 -152.6875 180.25 C-168.46555126 173.24424327 -184.33011193 165.64638736 -198 155 C-198.54301758 154.57895996 -199.08603516 154.15791992 -199.64550781 153.72412109 C-216.10218939 140.82347689 -228.8810557 123.73296671 -231.6875 102.5 C-233.87331978 76.36123841 -226.31066987 47.87801548 -209.30859375 27.59765625 C-181.81331967 -3.3403425 -140.5374751 -17.37954475 -99.80224609 -19.87109375 C-65.7348897 -21.43822776 -29.74654103 -18.47416759 0 0 Z " fill="#DB2244" transform="translate(1575,21)"/>
<path d="M0 0 C10.89 0 21.78 0 33 0 C31.87505484 10.12450646 31.87505484 10.12450646 30.83021545 15.1444397 C30.5961348 16.27945923 30.36205414 17.41447876 30.12088013 18.58389282 C29.86579681 19.7996701 29.6107135 21.01544739 29.34790039 22.26806641 C29.07476891 23.58486381 28.80201862 24.90174032 28.52961731 26.21868896 C27.94538117 29.03952866 27.35863091 31.85982906 26.76991463 34.67973709 C25.83618868 39.1530524 24.9091039 43.62772853 23.98301697 48.10263062 C21.68125128 59.21979764 19.37101753 70.3352027 17.05877686 81.45019531 C15.26194622 90.08803631 13.46758597 98.72637525 11.6804294 107.36622369 C10.76311684 111.79953185 9.8409194 116.23178482 8.91481602 120.66326451 C8.33554919 123.44062287 7.7607879 126.21890049 7.1871624 128.99742889 C6.7999093 130.86667746 6.40740924 132.73483672 6.01464844 134.60293579 C3.61275481 146.28224373 1.60154101 158.10547981 1.6875 170.0625 C1.69241455 170.90538574 1.6973291 171.74827148 1.70239258 172.61669922 C1.97124602 187.11272541 5.50893512 200.15132449 15.6484375 210.8984375 C30.74108195 224.38654832 51.56710576 226.39639136 70.9375 226.3125 C71.94605042 226.30976578 71.94605042 226.30976578 72.97497559 226.30697632 C107.2965041 226.1514116 142.32921112 218.40554802 168.0625 194.4375 C179.51253964 182.72035212 184.52838543 167.57115605 187.75 151.828125 C188.00098953 150.63564651 188.25197906 149.44316803 188.51057434 148.21455383 C189.05876929 145.60434463 189.60399676 142.99372228 190.14419556 140.38186646 C191.01603447 136.166855 191.89928438 131.95428156 192.78393555 127.74194336 C194.10957594 121.4244234 195.42989139 115.10580849 196.74755859 108.78662109 C200.39809964 91.28488318 204.08343631 73.79042875 207.76542854 56.29528618 C209.12851454 49.81750436 210.48904929 43.33919342 211.84740162 36.86041737 C212.70146858 32.78807478 213.55692369 28.71602459 214.41266441 24.64403343 C214.81460159 22.72985806 215.21592742 20.8155542 215.6166172 18.90111732 C216.1670363 16.27170906 216.71960944 13.64276236 217.27270508 11.01391602 C217.43416016 10.23993092 217.59561523 9.46594582 217.76196289 8.66850662 C218.3852569 5.71486633 219.04440487 2.86678538 220 0 C230.89 0 241.78 0 253 0 C251.73325633 7.60046204 250.4199798 15.11188593 248.81811523 22.63671875 C248.60679333 23.63960371 248.39547142 24.64248867 248.17774582 25.67576408 C247.47378469 29.01352611 246.76618672 32.35050618 246.05859375 35.6875 C245.54611126 38.11373335 245.03385491 40.54001447 244.52180481 42.96633911 C243.2690467 48.89950116 242.01391336 54.83215611 240.75763971 60.76457441 C239.27672074 67.75820353 237.79822016 74.75234323 236.31984639 81.74651074 C234.2648867 91.46832277 232.20927548 101.18999665 230.15213013 110.91134644 C225.69336219 131.98274601 221.24456024 153.05623175 216.80084449 174.1308105 C214.38137085 185.60468297 211.95938817 197.07802594 209.53709698 208.55130386 C207.72099324 217.15368251 205.90587501 225.75626657 204.0932312 234.359375 C202.53795751 241.74086382 200.98036521 249.12185915 199.42004973 256.50228393 C198.62158028 260.27944489 197.82407486 264.05680152 197.02948952 267.83478165 C194.03650972 282.06170865 190.99504426 296.27600486 187.72402334 310.44200683 C187.28904002 312.32613691 186.8574593 314.21105156 186.42601395 316.09599495 C181.57027757 336.87757337 173.48288299 357.96845229 159 374 C158.33871094 374.81339844 157.67742187 375.62679688 156.99609375 376.46484375 C146.12915693 389.45313472 130.7864121 399.00242641 114 402 C110.5 402.125 110.5 402.125 108 402 C106.4597225 397.02322102 105.49363261 392.22960352 104.875 387.0625 C104.78863281 386.37865234 104.70226563 385.69480469 104.61328125 384.99023438 C104.40397715 383.32742954 104.20128278 381.66379487 104 380 C105.03898437 379.52691406 106.07796875 379.05382812 107.1484375 378.56640625 C126.95396434 369.28910555 139.23170523 354.25647663 146.8057251 333.82667542 C147.5614488 331.59641283 148.27895416 329.35848798 148.9765625 327.109375 C149.36180084 325.87516815 149.36180084 325.87516815 149.75482178 324.61602783 C152.36192365 316.08763565 154.36034895 307.46048219 156.25 298.75 C156.62309634 297.05961817 156.99672787 295.3693544 157.37084961 293.67919922 C158.59615609 288.12281692 159.79969793 282.56182966 161 277 C161.22463928 275.96081421 161.44927856 274.92162842 161.6807251 273.85095215 C163.31711279 266.27758055 164.9436662 258.70214253 166.5625 251.125 C166.78627319 250.07856323 167.01004639 249.03212646 167.24060059 247.95397949 C167.87257403 244.99328955 168.50139024 242.03195002 169.12890625 239.0703125 C169.31906815 238.17951996 169.50923004 237.28872742 169.70515442 236.37094116 C170.64767735 232.222033 170.64767735 232.222033 171 228 C170.1028125 228.6290625 169.205625 229.258125 168.28125 229.90625 C129.70534491 256.55907434 80.82350506 264.63749793 34.85107422 256.62548828 C13.79761931 252.71264748 -7.00090298 243.27308643 -19.43017578 225.1809082 C-29.90382058 209.35059546 -33.20633286 192.70983945 -33.4375 174 C-33.45981689 172.97632324 -33.48213379 171.95264648 -33.50512695 170.89794922 C-33.48455051 163.58497038 -32.57156003 156.58058812 -31.3581543 149.38256836 C-31.18319994 148.34170798 -31.00824558 147.30084761 -30.82798958 146.22844601 C-28.63360048 133.4876766 -25.92388793 120.85572069 -23.20820189 108.21793485 C-22.46457659 104.75174033 -21.72713456 101.28422982 -20.98892212 97.81687927 C-19.5968013 91.28260724 -18.19926334 84.74950686 -16.79967749 78.21683019 C-15.21081209 70.79920483 -13.62860107 63.3801647 -12.04670215 55.96105111 C-9.58269531 44.40616098 -7.1153684 32.8519815 -4.64208984 21.29907227 C-4.28359703 19.62285042 -4.28359703 19.62285042 -3.91786194 17.9127655 C-3.58163567 16.34333694 -3.58163567 16.34333694 -3.23861694 14.74220276 C-3.04654852 13.84512887 -2.85448009 12.94805498 -2.65659142 12.02379704 C-1.78561145 8.01267752 -0.8904113 4.00685084 0 0 Z " fill="#000000" transform="translate(1573,456)"/>
<path d="M0 0 C63.03 0 126.06 0 191 0 C186 26 186 26 185 31 C132.86 31.33 80.72 31.66 27 32 C17.76 75.56 8.52 119.12 -1 164 C34.64 164 70.28 164 107 164 C103.62218891 174.13343328 103.62218891 174.13343328 101.5546875 178.65625 C101.11769531 179.6153125 100.68070313 180.574375 100.23046875 181.5625 C99.78316406 182.531875 99.33585938 183.50125 98.875 184.5 C98.41996094 185.5003125 97.96492187 186.500625 97.49609375 187.53125 C94.14074248 194.85925752 94.14074248 194.85925752 93 196 C89.83387337 196.09536242 86.68959372 196.12550636 83.52319336 196.11352539 C82.03067802 196.11374443 82.03067802 196.11374443 80.50801086 196.1139679 C77.20193338 196.11326831 73.89591146 196.10547379 70.58984375 196.09765625 C68.30440807 196.09579223 66.01897199 196.09436825 63.73353577 196.09336853 C57.70501613 196.08954207 51.67652041 196.0797107 45.64801025 196.06866455 C39.50167159 196.05845317 33.35532907 196.0538715 27.20898438 196.04882812 C15.13931238 196.03808854 3.06965818 196.0210106 -9 196 C-9.10469101 197.18668777 -9.20938202 198.37337555 -9.31724548 199.59602356 C-10.06793465 206.30393251 -11.52863355 212.86635793 -12.92407227 219.46362305 C-13.22686928 220.91058902 -13.5292931 222.35763313 -13.83137512 223.80474854 C-14.65034802 227.72273393 -15.47453101 231.63960681 -16.29967237 235.55629706 C-17.17181096 239.70053471 -18.03911216 243.84578464 -18.90696716 247.99092102 C-20.55854452 255.87570455 -22.21445991 263.75957048 -23.8719272 271.64311773 C-25.7262653 280.4641119 -27.57571776 289.28612787 -29.42475808 298.10823381 C-32.64904044 313.49100734 -35.8737047 328.87370873 -39.11078739 344.25379467 C-40.63353702 351.48974675 -42.15274073 358.7263927 -43.66126853 365.9653253 C-44.40079103 369.51251669 -45.14241799 373.05926647 -45.88429439 376.60596621 C-46.24029851 378.31066094 -46.59531558 380.01556213 -46.94930756 381.72067583 C-47.43859168 384.07703519 -47.93124989 386.43266548 -48.42466736 388.78816223 C-48.56988087 389.49189881 -48.71509438 390.1956354 -48.8647083 390.92069733 C-49.88609495 395.7721899 -49.88609495 395.7721899 -51 398 C-61.89 398 -72.78 398 -84 398 C-82.87501688 386.75016877 -82.87501688 386.75016877 -82.02536011 382.80664062 C-81.83326556 381.90199349 -81.64117102 380.99734636 -81.44325542 380.06528568 C-81.23365594 379.10530391 -81.02405645 378.14532213 -80.80810547 377.15625 C-80.58396626 376.10834762 -80.35982706 375.06044523 -80.12889576 373.98078823 C-79.38009815 370.4860743 -78.62358873 366.99307539 -77.8671875 363.5 C-77.3257222 360.97952665 -76.78478698 358.45893936 -76.24433899 355.93824768 C-75.07662016 350.49507549 -73.90519122 345.05271301 -72.73129272 339.61087036 C-70.84660083 330.87327783 -68.96992995 322.13397264 -67.0949707 313.39428711 C-66.9356417 312.65165662 -66.77631271 311.90902613 -66.61215556 311.14389169 C-65.96063744 308.10714856 -65.30913635 305.07040178 -64.65771919 302.03363699 C-63.65665711 297.36703066 -62.65503671 292.70054457 -61.65300876 288.03414553 C-54.60141226 255.19380622 -47.62255606 222.33813938 -40.65459168 189.47997004 C-38.86662478 181.04888103 -37.07740543 172.6180579 -35.28808594 164.18725586 C-34.96550024 162.66729265 -34.64291481 161.14732939 -34.32032967 159.62736607 C-33.83884223 157.35869166 -33.35735251 155.09001774 -32.87585652 152.82134515 C-31.76655593 147.59462272 -30.65735195 142.36787981 -29.54818726 137.14112854 C-24.00976663 111.04254547 -18.46992758 84.94426438 -12.91891003 58.8483572 C-11.65495066 52.90634847 -10.39154817 46.96422292 -9.12973022 41.02175903 C-7.9786677 35.6009529 -6.82602161 30.18048614 -5.67204475 24.76029968 C-5.25478234 22.79908275 -4.83810572 20.83774108 -4.4220562 18.87626648 C-3.86060221 16.22974998 -3.297041 13.58369112 -2.73291016 10.93774414 C-2.57006122 10.16764794 -2.40721228 9.39755175 -2.23942852 8.6041193 C-1.61270843 5.67362626 -0.94862813 2.8458844 0 0 Z " fill="#DB2244" transform="translate(860,6)"/>
<path d="M0 0 C1.17149345 -0.01058945 1.17149345 -0.01058945 2.36665344 -0.02139282 C35.04480283 -0.24980779 35.04480283 -0.24980779 48.57421875 3.203125 C49.78102295 3.50114014 49.78102295 3.50114014 51.01220703 3.80517578 C78.04336735 10.6722736 78.04336735 10.6722736 86.57421875 19.203125 C84.61650299 22.30768156 82.65793955 25.41170246 80.69921875 28.515625 C80.14363281 29.39669922 79.58804688 30.27777344 79.015625 31.18554688 C78.48066406 32.03310547 77.94570313 32.88066406 77.39453125 33.75390625 C76.90227051 34.53419189 76.41000977 35.31447754 75.90283203 36.1184082 C74.81408926 37.82674605 73.69791855 39.5175753 72.57421875 41.203125 C72.04957031 41.04457031 71.52492188 40.88601563 70.984375 40.72265625 C69.27477292 40.20778441 67.56361822 39.69805949 65.8515625 39.19140625 C63.50316621 38.48324861 61.16277172 37.74834175 58.828125 36.99609375 C24.72185601 26.16883766 -14.9565703 26.30747918 -47.2578125 42.9909668 C-61.52346343 50.92281363 -72.37585684 63.1809952 -80.11328125 77.390625 C-80.46994873 78.03660645 -80.82661621 78.68258789 -81.1940918 79.34814453 C-87.48329862 91.39724691 -90.48291248 104.80423819 -93.35546875 117.98828125 C-93.73273166 119.69278673 -94.11034055 121.39721567 -94.48825073 123.10157776 C-100.21229405 149.0330868 -105.65835318 175.02700952 -111.14893222 201.00876391 C-112.86263161 209.11765386 -114.5797644 217.22581622 -116.296875 225.33398438 C-118.09576662 233.82850538 -119.89415452 242.32313102 -121.68927002 250.81845093 C-124.05282956 262.00276931 -126.41676007 273.18691698 -128.81542969 284.36376953 C-129.15203854 285.93562681 -129.4886186 287.50749026 -129.82516479 289.07936096 C-130.3983739 291.75609471 -130.97575421 294.4317976 -131.55593872 297.10704041 C-135.82600859 317.0356723 -137.87628299 339.43982892 -127.21484375 357.6640625 C-118.63755307 369.83707329 -104.58882682 375.00587259 -90.41210938 377.56689453 C-54.32091234 383.2947075 -17.949805 373.98292038 16.49658203 363.75048828 C18.57421875 363.203125 18.57421875 363.203125 20.57421875 363.203125 C20.90421875 372.443125 21.23421875 381.683125 21.57421875 391.203125 C-1.43038554 398.49420177 -24.41716106 405.22255598 -48.42578125 408.203125 C-49.15635742 408.2973877 -49.88693359 408.39165039 -50.63964844 408.48876953 C-58.34274419 409.37954953 -66.05368244 409.446441 -73.80078125 409.453125 C-74.50654297 409.45379974 -75.21230469 409.45447449 -75.93945312 409.45516968 C-102.53634552 409.41492834 -130.1718015 404.92437115 -150.42578125 386.203125 C-151.04839844 385.63464844 -151.67101562 385.06617188 -152.3125 384.48046875 C-165.53087998 370.96504652 -169.57468888 351.42437854 -169.73828125 333.265625 C-169.76728516 332.25822266 -169.79628906 331.25082031 -169.82617188 330.21289062 C-170.0340778 303.8088382 -161.62114861 276.70623284 -156.0881424 251.06404495 C-154.86191633 245.37847653 -153.63999033 239.69198365 -152.41748047 234.00561523 C-150.91210939 227.00484184 -149.40596351 220.0042382 -147.89691162 213.0042572 C-144.79329607 198.6021692 -141.72361596 184.19330629 -138.68049049 169.77832413 C-137.41325153 163.78353169 -136.13820605 157.79039566 -134.86244869 151.79741096 C-133.86613514 147.11457422 -132.87442098 142.43087468 -131.89425659 137.74462891 C-124.77352262 103.72889623 -117.23325531 68.41425894 -92.46875 42.38671875 C-90.37038809 40.2113789 -90.37038809 40.2113789 -88.484375 37.69921875 C-68.50633399 13.47537016 -30.62845382 0.18474178 0 0 Z " fill="#000000" transform="translate(854.42578125,450.796875)"/>
<path d="M0 0 C75.57 0 151.14 0 229 0 C227.87336939 9.01304486 227.87336939 9.01304486 227.0625 12.8671875 C226.80339844 14.10082031 226.80339844 14.10082031 226.5390625 15.359375 C226.27222656 16.60460938 226.27222656 16.60460938 226 17.875 C225.73316406 19.15503906 225.73316406 19.15503906 225.4609375 20.4609375 C224.12933551 26.74132898 224.12933551 26.74132898 223 29 C190 29 157 29 123 29 C122.34 32.96 121.68 36.92 121 41 C120.59562752 43.09931974 120.17728853 45.19610415 119.73306274 47.28735352 C119.50159011 48.3833188 119.27011747 49.47928408 119.03163052 50.60846043 C118.78352155 51.77020755 118.53541258 52.93195467 118.27978516 54.12890625 C117.87776052 56.0268149 117.87776052 56.0268149 117.46761417 57.96306515 C116.73238828 61.43366557 115.99395339 64.90357615 115.25494933 68.37337375 C114.45969872 72.11012671 113.66751116 75.8475291 112.87495422 79.58485413 C111.50904991 86.02381655 110.14127686 92.46237962 108.77218628 98.90066528 C106.78972971 108.22339711 104.81008546 117.54672433 102.83120143 126.87021506 C100.42449446 138.20927838 98.01723325 149.54822379 95.60835266 160.88682556 C95.33046533 162.19484688 95.33046533 162.19484688 95.04696411 163.52929288 C94.76949886 164.83532556 94.76949886 164.83532556 94.48642826 166.16774273 C90.1999412 186.34436872 85.91964794 206.52230047 81.64385486 226.70119524 C80.2609976 233.22725808 78.87794585 239.75327971 77.49487305 246.27929688 C77.27187088 247.33153124 77.27187088 247.33153124 77.04436362 248.40502286 C68.66478037 287.94329146 60.28059527 327.48057524 51.8125 367 C51.57925081 368.08898527 51.57925081 368.08898527 51.34128952 369.19997025 C50.36040027 373.77944013 49.37802942 378.35858953 48.39453125 382.9375 C48.1606369 384.02820297 47.92674255 385.11890594 47.6857605 386.24266052 C47.47468658 387.22348099 47.26361267 388.20430145 47.04614258 389.21484375 C46.86634354 390.05136475 46.68654449 390.88788574 46.501297 391.74975586 C46.03538527 393.84116104 45.51967464 395.92130145 45 398 C34.11 398 23.22 398 12 398 C12.58499662 393.32002705 13.13139458 388.97011487 14.10630798 384.41331482 C14.32772115 383.37034398 14.54913431 382.32737314 14.77725697 381.25279713 C15.01954879 380.12837554 15.26184061 379.00395395 15.51147461 377.84545898 C15.89901051 376.02727047 15.89901051 376.02727047 16.29437542 374.17235088 C17.00934209 370.8212939 17.72733437 367.47091156 18.44662333 364.12078142 C19.22407943 360.49607795 19.9975843 356.87053118 20.77157593 353.24508667 C22.11573753 346.95154136 23.46237496 340.65852995 24.81069946 334.36587524 C26.77385782 325.20375191 28.73329892 316.04083671 30.69183147 306.87772357 C33.70258145 292.79212285 36.7157148 278.70703336 39.73062336 264.6223222 C44.20868009 243.70223948 48.68104352 222.7809436 53.15125084 201.85918236 C56.53763934 186.01013983 59.92504955 170.16131559 63.3125 154.3125 C63.4914649 153.47516374 63.67042979 152.63782748 63.85481787 151.7751174 C66.44008331 139.67931519 69.02598205 127.58364861 71.61328125 115.48828125 C71.77467205 114.73379503 71.93606285 113.97930881 72.10234427 113.20195937 C78.03670571 85.46112016 84.00894968 57.72867284 90 30 C58.32 29.67 26.64 29.34 -6 29 C-4.87396389 18.86567503 -4.87396389 18.86567503 -4.0625 15.25390625 C-3.88976563 14.47982422 -3.71703125 13.70574219 -3.5390625 12.90820312 C-3.36117188 12.13412109 -3.18328125 11.36003906 -3 10.5625 C-2.82210938 9.76134766 -2.64421875 8.96019531 -2.4609375 8.13476562 C-1.13827285 2.2765457 -1.13827285 2.2765457 0 0 Z " fill="#DB2244" transform="translate(1616,6)"/>
</svg>
